<svg version="1.1" id="Layer_1" xmlns="http://www.w3.org/2000/svg" xmlns:xlink="http://www.w3.org/1999/xlink" x="0px" y="0px" viewBox="0 0 500 500" style="width: 208px;" xml:space="preserve" data-imageid="adventure-95" imageName="Adventure" class="illustrations_image">
<style type="text/css">
	.st0_adventure-95{fill:#AFD32F;}
	.st1_adventure-95{opacity:0.32;fill:url(#SVGID_1_);enable-background:new    ;}
	.st2_adventure-95{opacity:0.32;fill:url(#SVGID_00000008111203935740526820000015865275952945448373_);enable-background:new    ;}
	.st3_adventure-95{opacity:0.32;fill:url(#SVGID_00000052795742193323723300000016058191495571885713_);enable-background:new    ;}
	.st4_adventure-95{opacity:0.32;fill:url(#SVGID_00000059282857243367779730000013332420763746954420_);enable-background:new    ;}
	.st5_adventure-95{fill:#68E1FD;}
	.st6_adventure-95{opacity:0.2;fill:#1A1A1A;enable-background:new    ;}
	.st7_adventure-95{fill:#FFFFFF;}
	.st8_adventure-95{fill:#9ABC0C;}
	.st9_adventure-95{fill:#F7931E;}
	.st10_adventure-95{fill:#CEC300;}
	.st11_adventure-95{fill:#18272A;}
	.st12_adventure-95{fill:#1A1A1A;}
	.st13_adventure-95{opacity:0.67;fill:#1A1A1A;enable-background:new    ;}
	.st14_adventure-95{fill:#FBB5AD;}
	.st15_adventure-95{fill:#EA3943;}
	.st16_adventure-95{opacity:0.5;fill:#1A1A1A;enable-background:new    ;}
</style>
<ellipse id="Base_adventure-95" class="st0_adventure-95" cx="236.9" cy="351.8" rx="205.8" ry="68.3"/>
<g id="Shadow_adventure-95">
	
		<linearGradient id="SVGID_1_-adventure-95" gradientUnits="userSpaceOnUse" x1="128.2201" y1="177.9499" x2="187.3901" y2="229.2299" gradientTransform="matrix(1 0 0 -1 0 502)">
		<stop offset="0" style="stop-color:#1A1A1A;stop-opacity:0"/>
		<stop offset="0.99" style="stop-color:#1A1A1A"/>
	</linearGradient>
	<polyline class="st1_adventure-95" points="149.4,286.9 90.8,302.5 140.8,334 201.1,314.9 206.6,291.5 163.9,281.4 &#9;"/>
	
		<linearGradient id="SVGID_00000100359319431361086820000005328183785288016034_-adventure-95" gradientUnits="userSpaceOnUse" x1="338.7533" y1="153.4962" x2="403.1933" y2="209.3462" gradientTransform="matrix(1 0 0 -1 0 502)">
		<stop offset="0" style="stop-color:#1A1A1A;stop-opacity:0"/>
		<stop offset="0.99" style="stop-color:#1A1A1A"/>
	</linearGradient>
	
		<polyline style="opacity:0.32;fill:url(#SVGID_00000100359319431361086820000005328183785288016034_);enable-background:new    ;" points="&#10;&#9;&#9;331.9,299.6 291.3,317.3 365.9,364.2 426.1,345.1 431.7,321.7 389,311.6 &#9;"/>
	
		<linearGradient id="SVGID_00000178897211183021976000000011247132007934975370_-adventure-95" gradientUnits="userSpaceOnUse" x1="193.2773" y1="123.6932" x2="252.4473" y2="174.9732" gradientTransform="matrix(1 0 0 -1 0 502)">
		<stop offset="0" style="stop-color:#1A1A1A;stop-opacity:0"/>
		<stop offset="0.99" style="stop-color:#1A1A1A"/>
	</linearGradient>
	
		<polyline style="opacity:0.32;fill:url(#SVGID_00000178897211183021976000000011247132007934975370_);enable-background:new    ;" points="&#10;&#9;&#9;214.5,341.2 155.9,356.8 205.9,388.2 266.1,369.1 271.7,345.7 229,335.6 &#9;"/>
	
		<linearGradient id="SVGID_00000092441329014422446390000005704668066490268077_-adventure-95" gradientUnits="userSpaceOnUse" x1="272.8411" y1="102.3988" x2="301.2911" y2="127.0488" gradientTransform="matrix(1 0 0 -1 0 502)">
		<stop offset="0" style="stop-color:#1A1A1A;stop-opacity:0"/>
		<stop offset="0.99" style="stop-color:#1A1A1A"/>
	</linearGradient>
	
		<polygon style="opacity:0.32;fill:url(#SVGID_00000092441329014422446390000005704668066490268077_);enable-background:new    ;" points="&#10;&#9;&#9;273.7,409.1 307.7,380.7 302.3,377.5 262.1,397.6 &#9;"/>
</g>
<g id="Waters_adventure-95">
	<path class="st5_adventure-95 targetColor" d="M51.7,323.2c0,0,70.7,8.5,77.8,23.7c0,0,2.2,5-6.9,8.7s-21.2,7.3-20.5,10.4s41.9,15.5,42.3,20.2&#10;&#9;&#9;s-1.9,17.4-25.1,21.6l-24.1-6.5" style="fill: rgb(104, 225, 253);"/>
	<path class="st5_adventure-95 targetColor" d="M49.9,323.2c1.7-1,83.3,11.9,75.1,23.7s-41.7,11.8-17.7,21.6S147.1,377,144,389s-38.7,15.3-38.7,15.3&#10;&#9;&#9;s-48.4-13.5-66.6-34S40.1,329.4,49.9,323.2z" style="fill: rgb(104, 225, 253);"/>
	<path class="st6_adventure-95" d="M49.9,323.2c1.7-1,83.3,11.9,75.1,23.7s-41.7,11.8-17.7,21.6S147.1,377,144,389s-38.7,15.3-38.7,15.3&#10;&#9;&#9;s-48.4-13.5-66.6-34S40.1,329.4,49.9,323.2z"/>
	<path class="st7_adventure-95" d="M109.1,378c-1.2-2-3.8-2.9-5.9-3.7c-2.9-1-5.8-1.8-8.7-2.4c-0.4-0.1-1.2-0.2-2.1-0.3c-4.2,0-8.9-0.7-10.1-3.9&#10;&#9;&#9;c-1.1-3,2.1-6,3.8-8c2.5-2.7,4.8-5.6,6.9-8.7c0.5-1.6,0.4-3.4-0.2-5c-1.8-4.8-7.4-7-12.4-8.1c6.2,1.9,12.2,6.1,10.4,12.4&#10;&#9;&#9;c-1.4,5.2-7,8-8.8,13.1c-1.9,5.5,3,7.8,7.4,9.2c5.7,1.8,16.7,2.1,20.5,7.7C109.8,379.5,109.5,378.7,109.1,378z"/>
	<path class="st7_adventure-95" d="M82.7,376c-5.7-1.5-11.9-1.5-16.8-5.4c-4.2-3.3-3.4-8.2-0.7-12.3s10.3-9.2,5.8-14.7c-2.7-3.2-6.6-4.2-10.4-5.5&#10;&#9;&#9;l7.5,5.6c0.9,0.6,1.8,1.4,2.4,2.3c2.8,4-3,8.5-5.1,11.4c-2.3,3-5,6.7-3.7,10.8c1,3,3.6,4.3,6.3,5.3s5.8,1.3,8.7,2&#10;&#9;&#9;c1.9,0.5,3.9,1,5.8,1.5c1-0.1,2,0.2,2.8,0.9c0.6,0,1.2,0.1,1.9,0.1C85.8,377,84.3,376.4,82.7,376z"/>
	<path class="st7_adventure-95" d="M55.2,352.6c-0.9-6-8.3-8.8-13.6-8.2c-0.4,0-0.7,0.1-1,0.3c6.1,1.9,15.3,3.1,13.4,11.3&#10;&#9;&#9;c-0.5,1.9-1.3,3.7-2.6,5.2C54,359.1,55.7,356.4,55.2,352.6z"/>
</g>
<g id="Tree_adventure-95">
	<polyline class="st8_adventure-95" points="145.3,126.2 152.1,74.9 152.1,121.3 &#9;"/>
	<path class="st8_adventure-95" d="M137,85.9c19.4,11.1,12.5,49.1,10.3,59.3c-0.4,1.6-0.6,2.5-0.6,2.5"/>
	<path class="st8_adventure-95" d="M114.4,94.5l29.1,25l-0.7-19c0,0,2.2-15.5-13.8-17.2S114.4,94.5,114.4,94.5z"/>
	<path class="st9_adventure-95" d="M150.6,305.1c-5.5-0.7-10.5-3.5-13.9-7.8c9.2-57.9,2.9-168.5,2.9-168.5l7.8-1c15.1,43.4,19.3,153.5,20,175.4&#10;&#9;&#9;C162.6,305.7,155.9,305.9,150.6,305.1z"/>
	<path class="st0_adventure-95" d="M186.2,85.7c23.9-1.1,39.5,25.4,39.5,25.4l-77.9,29.7l-3.2-19.3"/>
	<path class="st0_adventure-95" d="M150.3,117.5c0,0,12-30.7,35.9-31.8"/>
	<path class="st8_adventure-95" d="M231.9,135.5c-2.8,0-5.6,0.1-8.4,0.2l-5.4-10.5l2.1,10.6c-7.6,0.3-15.3,0.7-22.9,1.1c-2.3,0.1-4.6,0.3-6.9,0.4&#10;&#9;&#9;c-0.8-3.6-1.9-7.4-3.2-9.1c-0.3-0.4-0.1,4.6,0.2,9.3c-13.5,1-26.9,2.6-39.8,5.9l1.3-4c0,0,5-24.2,45.9-33.7s66.6,30.7,66.6,30.7&#10;&#9;&#9;l-0.8,0.1C251.2,135,241.5,135.4,231.9,135.5z"/>
	<path class="st8_adventure-95" d="M137,85.9c-22.5-12.8-29.7,13.2-29.7,13.2"/>
	<path class="st0_adventure-95" d="M147.8,140.9c0,0,5.6-20-21.8-40.1s-58-2.1-58-2.1l19,15.2l13.9-5.6l-7.7,10.1l16.1,10.8&#10;&#9;&#9;c0,0,10.4-6.9,13.8-8.9c0.8-0.4-7.1,12.7-7.1,12.7l30.8,14.8L147.8,140.9z"/>
	<path class="st8_adventure-95" d="M129,146.3l-0.9-8.9l-2.6,9.8c-8,2.1-15.8,4.5-23.8,7.1l-2.2-7.8l-0.6,8.8c-4.3,1.4-8.5,2.8-12.7,4.3l-1.6-9.7&#10;&#9;&#9;l-1.5,10.9c-5.1,1.9-10,4.3-14.6,7.2c-1.5-20.8,19.7-45.6,42.8-48.6c23.5-3.1,36.5,21.7,36.5,21.7l-6.1,2.8&#10;&#9;&#9;C137.4,144.4,133.2,145.3,129,146.3z"/>
	<path class="st0_adventure-95" d="M192.7,152.5l1.3-4.9l-2.1,4.6c-5.8-2.1-11.6-3.9-17.6-5.3l0.3-6.1l-2.1,5.6c-8.5-2-17-3.5-25.6-4.5&#10;&#9;&#9;c1.6-2.6,8.7-12.1,26.4-15.3c19.4-3.5,35.8,18.9,36.2,32.5l-2.4-0.4C202.4,156.4,197.6,154.3,192.7,152.5z"/>
</g>
<g id="Plants_adventure-95">
	<path class="st10_adventure-95" d="M166.4,279.4c4.9,5.6-0.2,9.9,0.1,18.8c0,0.7,0.2,1.4,0.4,2.1c4.5,3.5,9.9,5.7,15.5,6.6&#10;&#9;&#9;c0.1-6.8,11.9-11.9,11.4-19.8c-0.5-8.2-11.6-3.8-7.6-12.9s2.6-20.8-3.9-25.1c-4.8-3.2-10.3-10.2-12.8-13.7c0,1,0,2,0,2.9&#10;&#9;&#9;c0.5,5.4-1.8,11.3-4.5,15.6c-2.6,4-6.3,7.2-8.3,11.5c-0.2,0.4-0.4,0.9-0.5,1.4C154.3,274,162.1,274.6,166.4,279.4z"/>
	<path class="st11_adventure-95" d="M171.6,263c1,4.7,4.6,8.3,6.4,12.6c2.2,5.4-0.2,10.5-1.1,15.8c-1,5.6,1.2,10.4,4,15.1l1.1,0.2&#10;&#9;&#9;c-1.5-2.3-2.8-4.8-3.7-7.3c-0.9-2.8-1.1-5.8-0.4-8.7c1-4.8,2.9-9.5,1.2-14.4c-1.5-4.5-5.1-8-6.5-12.6c-1.7-5.5,1.5-11.1,0.4-16.6&#10;&#9;&#9;c-0.6-2.8-2-5.3-3.4-7.8l-0.1-0.3c0,0.5-0.1,1-0.1,1.5c1.2,1.9,2.2,4.1,2.8,6.3C173.5,252.1,170.4,257.5,171.6,263z"/>
	<path class="st0_adventure-95" d="M217.8,267.8c5.2-2.2,10.4-9.6,6.6-14.1s-2.8-11.1-2.8-11.1c-0.8,2.1-2.4,3.7-4.5,4.6&#10;&#9;&#9;c-10.6,3.7-11.6,9.8-11.8,14.5s5.4,14.9-11.5,20.3c-15.8,5-4.7,23.1-3,25.6c3.4,0.1,6.8-0.1,10.2-0.5c3.7-1.9,7.5-3.6,11.4-5.1&#10;&#9;&#9;c10.1-3.8,6.4-12.7,1.9-17.9S212.6,270,217.8,267.8z"/>
	<path class="st11_adventure-95" d="M221.3,243.9c-2.6,3.9-3.2,8.6-4.5,13.1c-1.4,4.8-4.5,8.5-7,12.8c-1.2,2-2,4.1-2.5,6.4&#10;&#9;&#9;c-0.5,2.5-0.5,5-0.8,7.4c-0.2,2.7-1,5.4-2.3,7.8c-1.4,2.2-2.9,4.3-4.6,6.3c-2.4,3-5,6.3-6,10h0.9c1-3.6,3.6-6.8,6-9.8&#10;&#9;&#9;c2.9-3.5,5.7-7.2,6.6-11.8c0.9-5.1,0.4-10.2,2.9-15c2.1-4,5.2-7.4,6.9-11.6c1.9-5,2.1-10.6,5.1-15.2&#10;&#9;&#9;C222.3,243.8,221.6,243.4,221.3,243.9z"/>
	<path class="st8_adventure-95" d="M189.6,307.6c-2-6.6-0.3-14.9,4.2-20.5c5.2-6.5,8.3-12.6,4.7-19.5c-2.1-4.2-3.2-8.8-3.1-13.5&#10;&#9;&#9;c-5.2,10.6-10.4,14.4-9.2,20.2s-0.2,8.4-3.8,17.3c-2.6,6.3,0,12.6,1.7,15.7C186,307.4,187.8,307.5,189.6,307.6z"/>
	<path class="st11_adventure-95" d="M186.6,307.4l0.9,0.1c-2.1-6-2.9-12.4,0.2-18.4c1.6-3.1,3.8-6,5.3-9.2c1.6-3.5,1.7-6.7,1.3-10.5&#10;&#9;&#9;c-0.5-4.9,0-10,1.6-14.7c0.2-0.5-0.6-0.7-0.8-0.2c-1.4,4-2,8.3-1.8,12.6c0.1,2.3,0.6,4.5,0.4,6.8c-0.1,2.1-0.7,4.1-1.6,6&#10;&#9;&#9;c-1.6,3.3-3.9,6.2-5.4,9.5c-1.6,3.5-2.2,7.4-1.7,11.3C185.3,303,185.8,305.2,186.6,307.4z"/>
	<path class="st10_adventure-95" d="M318.7,272.5c7.7,8.8-0.3,15.6,0.2,29.4c0,1.1,0.3,2.2,0.6,3.3c6.8,5.5,15.3,8.7,24.3,10.3&#10;&#9;&#9;c0.2-10.6,18.6-18.6,17.8-31c-0.8-12.9-18.2-5.9-11.9-20.3s4.1-32.6-6.1-39.3c-7.5-5-16.1-16-20-21.4c0,1.5,0,3.1,0,4.6&#10;&#9;&#9;c0.8,8.4-2.8,17.7-7.1,24.4c-4,6.2-9.8,11.4-13,18c-0.3,0.7-0.6,1.4-0.9,2.1C299.8,264.1,312,264.9,318.7,272.5z"/>
	<path class="st11_adventure-95" d="M326.9,246.8c1.6,7.4,7.2,12.9,10,19.8c3.5,8.5-0.2,16.4-1.7,24.8c-1.5,8.8,1.9,16.3,6.3,23.7l1.7,0.3&#10;&#9;&#9;c-2.4-3.6-4.3-7.5-5.8-11.5c-1.4-4.4-1.7-9.1-0.6-13.6c1.5-7.5,4.6-14.9,2-22.6c-2.4-7.1-8-12.6-10.2-19.7&#10;&#9;&#9;c-2.6-8.7,2.4-17.4,0.7-26.1c-0.9-4.4-3.2-8.3-5.4-12.2l-0.2-0.4c0,0.8-0.1,1.5-0.2,2.3c1.9,3.1,3.4,6.4,4.4,9.8&#10;&#9;&#9;C329.8,229.8,325,238.3,326.9,246.8z"/>
	<path class="st0_adventure-95" d="M399.3,254.4c8.1-3.4,16.2-15.1,10.3-22.1s-4.4-17.4-4.4-17.4c-1.3,3.2-3.8,5.8-7,7.2&#10;&#9;&#9;c-16.6,5.7-18.1,15.3-18.5,22.7s8.5,23.3-18.1,31.8c-24.7,7.9-7.3,36.2-4.8,40.1c5.3,0.1,10.7-0.2,16-0.8c5.8-3,11.8-5.7,17.9-7.9&#10;&#9;&#9;c15.9-5.9,10-19.9,3-28.1S391.1,257.8,399.3,254.4z"/>
	<path class="st11_adventure-95" d="M404.7,216.8c-4.1,6.1-5,13.6-7,20.5c-2.2,7.6-7.1,13.3-11,20c-1.9,3.1-3.2,6.4-3.9,10&#10;&#9;&#9;c-0.8,3.8-0.8,7.8-1.2,11.6c-0.3,4.3-1.5,8.5-3.6,12.3c-2.1,3.5-4.5,6.8-7.2,9.8c-3.8,4.7-7.8,9.8-9.3,15.7h1.4&#10;&#9;&#9;c1.6-5.7,5.6-10.7,9.3-15.3c4.6-5.6,9-11.2,10.3-18.5c1.5-8,0.6-16,4.6-23.4c3.3-6.2,8.2-11.6,10.7-18.2c3-7.8,3.3-16.7,8.1-23.8&#10;&#9;&#9;C406.2,216.8,405.1,216.1,404.7,216.8z"/>
	<path class="st8_adventure-95" d="M355,316.7c-3.2-10.3-0.5-23.3,6.6-32.2c8.1-10.2,12.9-19.7,7.4-30.6c-3.3-6.6-5-13.9-4.8-21.2&#10;&#9;&#9;c-8.1,16.6-16.2,22.5-14.4,31.6s-0.3,13.1-6,27.1c-4,9.9,0,19.7,2.7,24.5C349.3,316.3,352.2,316.6,355,316.7z"/>
	<path class="st11_adventure-95" d="M350.4,316.4l1.5,0.1c-3.3-9.4-4.5-19.4,0.3-28.8c2.5-4.9,5.9-9.3,8.2-14.4c2.5-5.4,2.7-10.5,2.1-16.4&#10;&#9;&#9;c-0.9-7.8,0-15.6,2.5-23c0.3-0.8-1-1.1-1.2-0.4c-2.2,6.3-3.1,13-2.8,19.7c0.2,3.5,0.9,7.1,0.7,10.6c-0.2,3.3-1.1,6.4-2.6,9.4&#10;&#9;&#9;c-2.5,5.2-6.1,9.8-8.5,15c-2.6,5.5-3.5,11.6-2.6,17.7C348.3,309.5,349.1,313,350.4,316.4z"/>
	<path class="st10_adventure-95" d="M367.2,301.7c7.7,8.8-0.3,15.5,0.2,29.4c0,1.1,0.3,2.2,0.6,3.3c6.8,5.5,15.3,8.7,24.3,10.3&#10;&#9;&#9;c0.2-10.6,18.6-18.6,17.8-31c-0.8-12.9-18.2-5.9-11.9-20.2s4.1-32.6-6.1-39.4c-7.5-5-16.1-16-20-21.4c0,1.5,0,3.1,0,4.6&#10;&#9;&#9;c0.8,8.4-2.7,17.7-7.1,24.4c-4,6.2-9.8,11.4-13,18.1c-0.3,0.7-0.6,1.4-0.9,2.1C348.2,293.4,360.5,294.2,367.2,301.7z"/>
	<path class="st11_adventure-95" d="M375.4,276c1.6,7.4,7.2,12.9,10,19.8c3.5,8.4-0.2,16.4-1.7,24.8c-1.5,8.9,1.9,16.3,6.3,23.7&#10;&#9;&#9;c0.6,0.1,1.1,0.2,1.7,0.3c-2.4-3.6-4.3-7.4-5.8-11.5c-1.4-4.4-1.7-9.1-0.6-13.7c1.5-7.5,4.6-14.9,2-22.6c-2.4-7.1-8-12.6-10.2-19.7&#10;&#9;&#9;c-2.6-8.7,2.4-17.3,0.7-26.1c-0.9-4.4-3.2-8.3-5.4-12.2l-0.2-0.4c0,0.8-0.1,1.5-0.2,2.3c1.9,3.1,3.4,6.4,4.4,9.8&#10;&#9;&#9;C378.3,259.1,373.5,267.5,375.4,276z"/>
	<path class="st0_adventure-95" d="M447.8,283.6c8.1-3.4,16.2-15.1,10.3-22.1s-4.4-17.4-4.4-17.4c-1.3,3.2-3.8,5.8-7,7.2&#10;&#9;&#9;c-16.6,5.7-18.1,15.3-18.5,22.7s8.5,23.3-18.1,31.8c-24.7,7.9-7.3,36.2-4.8,40.1c5.3,0.1,10.7-0.2,16-0.8&#10;&#9;&#9;c5.8-3.1,11.7-5.7,17.9-7.9c15.9-5.9,10-19.9,3-28.1S439.6,287,447.8,283.6z"/>
	<path class="st11_adventure-95" d="M453.1,246.1c-4.1,6.1-5,13.5-7,20.5c-2.2,7.6-7.1,13.3-11,20c-1.9,3.1-3.2,6.5-3.9,10&#10;&#9;&#9;c-0.8,3.8-0.8,7.8-1.2,11.6c-0.3,4.3-1.6,8.5-3.6,12.3c-2.1,3.5-4.5,6.8-7.2,9.8c-3.8,4.7-7.8,9.8-9.3,15.7h1.4&#10;&#9;&#9;c1.6-5.7,5.6-10.7,9.3-15.3c4.6-5.6,9-11.2,10.3-18.5c1.4-8,0.6-16,4.6-23.4c3.3-6.2,8.2-11.6,10.8-18.2c3-7.8,3.3-16.7,8.1-23.8&#10;&#9;&#9;C454.7,246,453.6,245.4,453.1,246.1z"/>
	<path class="st8_adventure-95" d="M403.5,345.9c-3.2-10.3-0.5-23.3,6.6-32.2c8.1-10.2,12.9-19.7,7.4-30.6c-3.3-6.6-5-13.9-4.8-21.2&#10;&#9;&#9;c-8.1,16.6-16.2,22.5-14.5,31.6s-0.3,13.1-6,27.1c-4,9.9,0,19.7,2.7,24.5C397.8,345.5,400.7,345.8,403.5,345.9z"/>
	<path class="st11_adventure-95" d="M398.9,345.6c0.5,0,1,0.1,1.5,0.1c-3.3-9.4-4.5-19.4,0.3-28.8c2.5-4.9,5.9-9.3,8.2-14.4&#10;&#9;&#9;c2.5-5.4,2.7-10.5,2.1-16.4c-0.9-7.8,0-15.6,2.5-23c0.3-0.8-1-1.1-1.2-0.3c-2.2,6.3-3.1,13-2.8,19.7c0.2,3.5,0.9,7.1,0.7,10.6&#10;&#9;&#9;c-0.2,3.3-1.1,6.4-2.6,9.4c-2.5,5.2-6.1,9.8-8.5,14.9c-2.6,5.5-3.5,11.6-2.6,17.7C396.8,338.7,397.6,342.2,398.9,345.6z"/>
</g>
<g id="Character_adventure-95">
	<path class="st11_adventure-95" d="M259.5,180.1c0,0-1-4.8-12.8-8.2S232,185.8,232,185.8"/>
	<path class="st11_adventure-95" d="M264,186.8c0,0,7.7,25.8,1.1,35.4c-3.2,4.7-24,5.3-24,5.3"/>
	<path class="st12_adventure-95" d="M219.7,135.7c0,0,2-6.2,1.8-9.4s1-10-0.8-10.2s-3.3,5-3.6,5.9s-3.8-2.7-5.2-4.8s-6.8-3.2-7.8-1.1&#10;&#9;&#9;s4.5,11.7,5.7,14.1c1.2,2.5,3.2,7,3.2,7C215.4,137.7,217.8,137.2,219.7,135.7z"/>
	<path class="st12_adventure-95" d="M272.3,148.4c0,0-0.8-6.5,0-9.6s0.8-10,2.7-9.8s2.3,5.5,2.4,6.4s4.2-2,6-3.8s7.3-1.9,7.9,0.3&#10;&#9;&#9;s-6.6,10.7-8.3,13s-4.5,6.3-4.5,6.3C276.2,151.2,273.9,150.2,272.3,148.4z"/>
	<path class="st9_adventure-95" d="M222.8,128c-4.6,3.9-5.9,4.6-12,5.8c2.2,10.4,5.8,52.3,12.8,67.7l9.3-27.3L222.8,128z"/>
	<path class="st13_adventure-95" d="M223.5,220.7c0,0-6.7,34-6.1,52.7s0.9,41.5,2.4,51.7c0,0,12.9,1.7,17.3-2c0,0,1.3-65.5,1.4-65.1&#10;&#9;&#9;c2,8.6,11.3,52.7,12.3,55.6s5.8,26.1,5.8,26.1c6.3,1.5,12.9,0.4,18.4-3c0,0-1.6-33.5-4.6-42.9s-13.4-68.5-18.5-73.2"/>
	<path class="st12_adventure-95" d="M270.8,331.7L270.8,331.7c-1.5,0-3.7,1.5-5.1,2.2l-3.9,1.8c0,0-2.6,9.3-4.1,12.6s-6.8,10.8-5,13.5&#10;&#9;&#9;s6.6,4.8,11.5,2.2s4.8-11.1,6.6-14.5c1.5-2.8,0.8-8.6,0.8-9.9C271.7,337.1,271.4,334.3,270.8,331.7z"/>
	<path class="st12_adventure-95" d="M230.5,314.9L230.5,314.9c-1.6,0-3.7,1.6-5.2,2.2l-3.9,1.8c0,0-1.3,10.1-4.1,12.6s-13.1,8-11.3,10.7&#10;&#9;&#9;c2.6,3.6,7.4,4.7,11.3,2.5c4.9-2.6,8.1-7.8,11.6-9.2c3-1.1,1.7-8.6,1.8-11.1C231.1,320.2,231.2,319.2,230.5,314.9z"/>
	<path class="st5_adventure-95 targetColor" d="M223.5,220.7c0,0-6.7,34-6.1,52.7s0.9,41.5,2.4,51.7c0,0,12.9,1.7,17.3-2c0,0,1.3-65.5,1.4-65.1&#10;&#9;&#9;c2,8.6,11.3,52.7,12.3,55.6s5.8,26.1,5.8,26.1c6.3,1.5,12.9,0.4,18.4-3c0,0-1.6-33.5-4.6-42.9s-13.4-68.5-18.5-73.2" style="fill: rgb(104, 225, 253);"/>
	<path class="st9_adventure-95" d="M251.5,223.4c0,0,11.5-31.8,6.8-39.1s-23.2-13-32.1-12.3s-3.2,51-1.8,51.4S239.1,232.4,251.5,223.4z"/>
	<path class="st11_adventure-95" d="M232,176.2c0,0-9.7,17.6-10.1,27.9l-1.2-9.4c0,0,4.8-19.1,11.1-22.8L232,176.2z"/>
	<path class="st11_adventure-95" d="M246.7,176.2c0,0-7.5,23.6,9.5,32l-1.2,4.3c0,0-12.4-4.7-13.9-18.7s0.5-20.1,2.2-19.4&#10;&#9;&#9;C244.5,175,245.7,175.6,246.7,176.2z"/>
	<path class="st14_adventure-95" d="M227.3,159.3c0,0,0,18.6,7.1,19.8c7.8,1.3,12.2-7.2,12.2-7.2s1-16.4-6.8-17.9S227.6,156.9,227.3,159.3z"/>
	<path class="st12_adventure-95" d="M233.3,171.8c-0.2,0-0.4,0-0.5-0.1c0.2-1.7,0.4-3.5,0.7-5.2c0.1-0.6-0.9-0.8-1-0.2c-0.4,1.8-0.6,3.7-0.8,5.5&#10;&#9;&#9;c0,0.2,0.1,0.4,0.3,0.5c0.4,0.2,0.9,0.3,1.4,0.3C234.1,172.8,234,171.8,233.3,171.8z"/>
	<path class="st12_adventure-95" d="M236.6,172.2c-0.6,1.4-2.2,2-3.6,1.4c-0.2,0-0.3,0.1-0.4,0.3c0,0.2,0.1,0.3,0.2,0.4c1.7,0.6,3.6-0.1,4.4-1.8&#10;&#9;&#9;C237.4,172.1,236.8,171.8,236.6,172.2z"/>
	<path class="st12_adventure-95" d="M235.7,169.6c-0.3,0-0.5,0.2-0.5,0.5s0.2,0.5,0.5,0.5s0.5-0.2,0.5-0.5S236,169.6,235.7,169.6z"/>
	<path class="st12_adventure-95" d="M229.4,168.3c-0.3,0-0.5,0.2-0.5,0.5s0.2,0.5,0.5,0.5s0.5-0.2,0.5-0.5S229.7,168.3,229.4,168.3z"/>
	<path class="st14_adventure-95" d="M241.2,170c0,0,1.9-7.1,4-4.8s-3.4,7.5-3.4,7.5"/>
	<path class="st12_adventure-95" d="M243.1,151.7c0,0,7,0.7,9,6s-3.2,15.8-6.9,17.5l4.5-9.3l-0.2-6.3L243.1,151.7z"/>
	<path class="st12_adventure-95" d="M251.9,160.1c-0.6-3.7-3.1-5.5-6.5-7.4l-0.8-0.4c0.6-0.5,1.2-1.1,1.5-1.9c0.1-0.2,0.1-0.5-0.2-0.7&#10;&#9;&#9;c-0.1,0-0.2-0.1-0.3-0.1c-0.9,0-1.7,0.4-2.3,1.1c-0.4-0.8-0.9-1.4-1.6-2c-0.2-0.2-0.6-0.2-0.7,0c0,0.1-0.1,0.1-0.1,0.2&#10;&#9;&#9;c-0.3,0.7-0.3,1.5,0.1,2.2c-3.5-0.7-7.1-0.2-10.3,1.5c-1.1,0.6-2.1,1.5-2.8,2.6c-0.9-0.1-1.9,0.1-2.8,0.5c-1.9,0.8-3,2.7-2.6,4.8&#10;&#9;&#9;c0.5,2.2,3,3,5.1,2.6c1.1-0.2,2.1-0.6,2.9-1.3c-0.6,1-0.9,2.3,1.1,2.8c3.6,0.8,5.3-1.2,5.5,0.4c0.2,1.4,2.2,2.2,3.6,2.2&#10;&#9;&#9;c0.1,0.2,0.4,0.8,0.7,1.6c0.7-0.2,1.5-0.3,2.2-0.1c0.2-0.2,0.6-0.2,0.8,0c0,0,0.1,0.1,0.1,0.1c1.2,2,1,4.2,0.5,6.6&#10;&#9;&#9;c1.9-1.6,3.5-3.5,4.7-5.7C251.3,166.6,252.4,163.2,251.9,160.1z M241.8,150.1c0.1,0.1,0.1,0.1,0.1,0.2c0,0.1,0,0.1,0,0.2&#10;&#9;&#9;c0.1,0.2,0.1,0.3,0.2,0.5C242,150.7,241.9,150.4,241.8,150.1L241.8,150.1z"/>
	<path class="st11_adventure-95" d="M243.4,194.6v-4.7l-18.8-3.1l-1.4,4.6C229.7,193.2,236.6,193.7,243.4,194.6z"/>
	<path class="st11_adventure-95" d="M222.5,211c0,0,8.8,5.6,31.8,4.3l-1.7,3.1c0,0-15.4,2.5-29.6-3.7L222.5,211z"/>
	<path class="st9_adventure-95" d="M270.5,141.9l-18.1,37.7l3.1,26.4l26.6-59.1C278,145.4,274.2,143.8,270.5,141.9z"/>
	<path class="st12_adventure-95" d="M252.3,360.2c0,0,0.3,6.1,0.7,6.8s1.1,3.1,9,3.1s9.7-10,9.7-10s-0.5-6.9,0-7.8s0-9.1,0-9.1"/>
	<path class="st12_adventure-95" d="M205.9,341.6v5.5c0,0,1.5,4,8.1,3.1c4.3-0.7,8.2-3.2,10.5-6.9c0.9-1.2,5.4-4,6.1-4.5s0.4-9.4,0.4-9.4"/>
	<path class="st15_adventure-95" d="M230.6,153.2c0.6,0,6.3-9.7,15.7-5.2c12.3,5.8,5.1,17.1,5.1,17.1"/>
	<path class="st16_adventure-95" d="M230.6,153.2c0.6,0,6.3-9.7,15.7-5.2c12.3,5.8,5.1,17.1,5.1,17.1"/>
	<path class="st15_adventure-95" d="M227.2,155.4c0,0,9.6-0.1,14,3.3s8.1,10.2,9.5,9.4s2.7-3.9,2.3-5.1c-0.3-0.9-4.2-8.4-15.4-11.6&#10;&#9;&#9;S227.2,155.4,227.2,155.4z"/>
</g>
<g id="Flag_adventure-95">
	<path class="st5_adventure-95 targetColor" d="M303,247.1c0,0,12.8-2.3,22.9,1.4s24.6-2.1,24.6-2.1v27.1c0,0-15.9,1.5-23.8-1.4s-22,1.8-22,1.8" style="fill: rgb(104, 225, 253);"/>
	<rect x="303" y="242.7" class="st12_adventure-95" width="4.6" height="138"/>
</g>
</svg>