<svg version="1.1" id="Layer_1" xmlns="http://www.w3.org/2000/svg" xmlns:xlink="http://www.w3.org/1999/xlink" x="0px" y="0px" viewBox="0 0 500 500" style="width: 150px;" xml:space="preserve" data-imageid="family-1-12" imageName="Family 1" class="illustrations_image">
<style type="text/css">
	.st0_family-1-12{fill:#DCC2EF;}
	.st1_family-1-12{opacity:0.32;fill:url(#SVGID_1_);enable-background:new    ;}
	.st2_family-1-12{opacity:0.32;fill:url(#SVGID_00000111883202805944732390000015477909047940804025_);enable-background:new    ;}
	.st3_family-1-12{opacity:0.32;fill:url(#SVGID_00000113355252988108898550000001610219880431833256_);enable-background:new    ;}
	.st4_family-1-12{fill:#68E1FD;}
	.st5_family-1-12{fill:#FFE8E6;}
	.st6_family-1-12{opacity:0.4;fill:#1B1464;enable-background:new    ;}
	.st7_family-1-12{fill:#1B1464;}
	.st8_family-1-12{fill:#FF9A22;}
	.st9_family-1-12{fill:#FFD0B0;}
	.st10_family-1-12{opacity:0.62;fill:#1B1464;enable-background:new    ;}
	.st11_family-1-12{opacity:0.1;fill:#1B1464;enable-background:new    ;}
	.st12_family-1-12{fill:#F26250;}
	.st13_family-1-12{fill:none;}
	.st14_family-1-12{fill:#297600;}
	.st15_family-1-12{fill:#5FAD00;}
</style>
<path id="Base_family-1-12" class="st0_family-1-12" d="M471.4,262.3L298.2,161.6c-2.5-1.5-5.7-1.5-8.2,0L30.9,309.8c-3.9,2.3-5.3,7.3-3,11.2&#10;&#9;c0.7,1.3,1.8,2.3,3,3l165.7,95.7c8.3,4.8,18.5,4.8,26.7,0l248.1-143.2c3.9-2.3,5.3-7.3,3-11.2C473.7,264.1,472.7,263.1,471.4,262.3z&#10;&#9;"/>
<g id="Shadow_family-1-12">
	
		<linearGradient id="SVGID_1_-family-1-12" gradientUnits="userSpaceOnUse" x1="310.1612" y1="150.1588" x2="377.1712" y2="214.2388" gradientTransform="matrix(1 0 0 -1 0 502)">
		<stop offset="0" style="stop-color:#FFFFFF;stop-opacity:0"/>
		<stop offset="1" style="stop-color:#1B1464"/>
	</linearGradient>
	<path class="st1_family-1-12" d="M300.6,368.5l99.3-56.9l-33.7-21.5l-93.9,52.5C280.4,348.2,292.6,362.6,300.6,368.5z"/>
	
		<linearGradient id="SVGID_00000092417551346703793420000004234565137761166520_-family-1-12" gradientUnits="userSpaceOnUse" x1="87.2426" y1="161.0648" x2="198.2626" y2="217.4048" gradientTransform="matrix(1 0 0 -1 0 502)">
		<stop offset="0" style="stop-color:#FFFFFF;stop-opacity:0"/>
		<stop offset="1" style="stop-color:#1B1464"/>
	</linearGradient>
	<path style="opacity:0.32;fill:url(#SVGID_00000092417551346703793420000004234565137761166520_);enable-background:new    ;" d="&#10;&#9;&#9;M97.4,362.4l165.7-98.8l-33.7-21.4l-164.8,92C72.8,339.8,89.3,356.6,97.4,362.4z"/>
	
		<linearGradient id="SVGID_00000086691033625482983620000002557199271093886125_-family-1-12" gradientUnits="userSpaceOnUse" x1="274.8638" y1="281.5293" x2="294.9838" y2="294.9493" gradientTransform="matrix(1 0 0 -1 0 502)">
		<stop offset="0" style="stop-color:#FFFFFF;stop-opacity:0"/>
		<stop offset="1" style="stop-color:#1B1464"/>
	</linearGradient>
	<path style="opacity:0.32;fill:url(#SVGID_00000086691033625482983620000002557199271093886125_);enable-background:new    ;" d="&#10;&#9;&#9;M279.6,230.9l39.8-23.7l-22-14L260,214C266.3,220,273,225.3,279.6,230.9z"/>
</g>
<polygon id="Base_2_family-1-12" class="st4_family-1-12 targetColor" points="170.5,342 217.1,373.3 338.5,297.4 293.5,267.7 " style="fill: rgb(104, 225, 253);"/>
<g id="Daughter_family-1-12">
	<path class="st5_family-1-12" d="M373.6,296.2c0,0,6.6-5.7,9.3-2.9s1.5,9.4,8.6,7c1.6-0.5-2.2-9-2.5-12s-0.2-8.3-3.9-9s-11.2,9.1-18,9.5"/>
	<path class="st5_family-1-12" d="M381.5,308.9c0,0,6.6-5.8,9.2-3s1.6,9.4,8.7,6.9c1.6-0.6-2.4-9-2.7-12s-0.4-8.3-4-8.9s-11,9.3-17.9,9.8"/>
	<path class="st4_family-1-12 targetColor" d="M352,242.6c0,0-22,13.1-45.9-0.2l-1.1,17.4c0,0,26.2,10.4,44.6,6.1" style="fill: rgb(104, 225, 253);"/>
	<path class="st6_family-1-12" d="M352,242.6c0,0-22,13.1-45.9-0.2l-1.1,17.4c0,0,26.2,10.4,44.6,6.1"/>
	<path class="st5_family-1-12" d="M305.9,246.1c0,0-2.9-1.3-3.1-1.5c-1.2-0.8-2.3-1.7-3.5-2.5c-1-0.9-2.2-1.5-3.5-1.9c-1-0.1-1.9,0.6-2,1.6&#10;&#9;&#9;c0,0.2,0,0.5,0,0.7c0.2,1.3,2.5,2.8,3.3,3.7c0.1,0.1,0.7-1.6,0.8-1.6c-0.2,0.5-0.5,1.1-0.8,1.6c0,0.2-0.1,0.4-0.2,0.6&#10;&#9;&#9;c-1,2-2.5,3.7-3.6,5.6c-0.1,0.3-0.3,0.6-0.5,0.9c-0.1,0.2-0.2,0.4-0.3,0.6c1.4,0.2,2.7,0.4,4.1,0.5c2.9,0.6,5.8,0.9,8.8,0.8&#10;&#9;&#9;C305.6,252.1,305.7,249.2,305.9,246.1z"/>
	<path class="st7_family-1-12" d="M300.2,251.5c-2.7-1.1-2.6-4-2.2-6.4c0.1-0.5-0.6-0.7-0.7-0.2c-0.5,3-0.4,6,2.7,7.4&#10;&#9;&#9;C300.4,252.4,300.6,251.7,300.2,251.5z"/>
	<path class="st8_family-1-12" d="M289.5,281.2v-22.1l19.8-11V270L289.5,281.2z"/>
	<path class="st8_family-1-12" d="M289.5,259.1l-19.2-11c0,0-0.5,22.2,0,22.6s19.2,10.5,19.2,10.5V259.1z"/>
	<polygon class="st9_family-1-12" points="270.3,248.1 289.5,236.3 309.2,248.1 289.5,259.1 &#9;"/>
	<path class="st10_family-1-12" d="M289.5,281.2v-22.1l19.8-11V270L289.5,281.2z"/>
	<path class="st7_family-1-12" d="M358.1,279.9c-2.4,0.6-29.6,14.2-27.5,29c1.5,11.2,24.5,5.5,24.5,5.5l21.9-19.2"/>
	<path class="st5_family-1-12" d="M312,274.9h-0.1c0.4-0.8,0.1-1.7-0.7-2.1c0,0-0.1,0-0.1-0.1c0.3-0.9-0.1-1.9-1-2.2c-0.1,0-0.2-0.1-0.3-0.1&#10;&#9;&#9;c-2-0.4-4-0.9-5.9-1.5c-1.2-0.5-2.5-1.1-3.6-1.8c-1.2-0.6-2.5-1.3-3.6-2.1c-1.6-1.1-3.1-2.3-4.4-3.7c-0.6-0.6-1.2-1.3-1.8-1.9&#10;&#9;&#9;c-0.7-0.6-1.3-1.2-1.8-1.9c-0.9-1.4-2.1-1.8-3-0.2c-0.9,1.6,1,3,2,4.6c-1.5-0.3-3.1-0.5-4.6-0.6c0,0-0.1,0.1-0.1,0.1&#10;&#9;&#9;c-1.5,1.3-1.7,2.4-0.7,3.4c0.2,0.3,0.1,0.7-0.1,1c-0.7,0.9-1.6,3.1,0.2,3.4c0.4,0.1,0.7,0.6,0.6,1c-0.2,1.7,0.4,3.4,1.8,4.5&#10;&#9;&#9;c2.4,1.1,4.9,0.9,7.6,1.3c2.8,0.5,5.5,1.3,8.2,2.2c2.7,0.7,5.5,1.5,8.1,2.4c1,0.3,2-0.3,2.3-1.2c0.1-0.4,0.1-0.8,0-1.2l0.6,0.1&#10;&#9;&#9;C313,278.6,313.8,275.5,312,274.9z"/>
	<path class="st7_family-1-12" d="M281.9,265.7c-0.1,0.1-0.1,0.1-0.1,0.2l5.6,0.7c0.2,0,0.4-0.2,0.4-0.4c0-0.2-0.1-0.3-0.3-0.4l-5.4-0.7&#10;&#9;&#9;C282.1,265.4,282,265.5,281.9,265.7z"/>
	<path class="st7_family-1-12" d="M282.7,270c1.7,0.2,3.4,0.3,5,0.5c0.5,0,0.6-0.7,0.1-0.8c-1.8-0.1-3.6-0.3-5.4-0.5&#10;&#9;&#9;C282.6,269.4,282.7,269.7,282.7,270z"/>
	<path class="st7_family-1-12" d="M283.6,273.6l4.7,0.2c0.5,0,0.6-0.7,0.1-0.8l-5.3-0.2C283.2,273.1,283.4,273.4,283.6,273.6z"/>
	<path class="st4_family-1-12 targetColor" d="M351.2,242.4c0,0-17,23.9-51.1,24.6l-4.4,14.3c0,0,31.1,10.1,51.5-6.9l5.8,15.6c0,0,15,1.4,28.6-5&#10;&#9;&#9;c0,0-0.5-38.1-27.8-50.8" style="fill: rgb(104, 225, 253);"/>
	<path class="st11_family-1-12" d="M351.2,242.4c0,0-19.2,24.6-51.1,24.6l-4.4,14.3c0,0,31.1,10.1,51.5-6.9l5.8,15.6c0,0,15,1.4,28.6-5&#10;&#9;&#9;c0,0-0.5-38.1-27.8-50.8"/>
	<path class="st5_family-1-12" d="M336.9,225.3c0,0-0.9,17.1,7.5,19.2c9.6,2.4,16-10.9,11.7-18.3S339.2,219.5,336.9,225.3z"/>
	<path class="st12_family-1-12" d="M342.4,218c-3.4,1.1-6.2,3.5-7.7,6.8c-0.1,0.2-0.2,0.5-0.3,0.7c-0.1,0.7-0.1,1.4-0.1,2.1c0,1.7,1,3.3,2.7,4&#10;&#9;&#9;c0-2.8,0.4-5.4,2.8-7.8c0,0-1,1.9,8.2,6c0,0,6.3,8.4,4.6,12.7c0.2-0.4,1.3-1,1.7-1.3c1.4-1.2,2.7-2.5,3.8-3.9&#10;&#9;&#9;C365.9,227,353.3,214.5,342.4,218z"/>
	<path class="st12_family-1-12" d="M339.9,223.7c0,0,0.3,7.8,9.6,9.3c5.7,0.9-6.3,11.2-0.7,14.5s16.2-4,18.7-9.3s-5.9-21-19.3-21.8&#10;&#9;&#9;c0,0-9.7-1.9-13.6,9"/>
	<path class="st7_family-1-12" d="M342.5,233.2c-0.2,0-0.4,0.1-0.4,0.3c0,0.2,0.1,0.4,0.3,0.4l0,0c0.2,0,0.4-0.1,0.4-0.3&#10;&#9;&#9;C342.8,233.4,342.7,233.2,342.5,233.2z"/>
	<path class="st7_family-1-12" d="M338.2,232.3l-0.2,0.1c-0.5,0.1-0.2,0.9,0.3,0.7l0.2-0.1C339,232.9,338.7,232.2,338.2,232.3z"/>
	<path class="st5_family-1-12" d="M353.4,233c-1.6-2.8-5.3,0.2-5.2,2.5c0,0.4,0.3,0.7,0.7,0.6c0.1,0,0.1,0,0.1,0c0,0.1,0,0.2,0.1,0.3&#10;&#9;&#9;c-0.2,0-0.4,0-0.5,0c-1-0.2-1.2,1.3-0.2,1.5C350.7,238.3,354.9,235.8,353.4,233z"/>
	<path class="st7_family-1-12" d="M340.9,237.5c-1.5-0.1-0.7-1.7-0.5-2.4s0.5-1.6,0.8-2.4c0.2-0.5-0.6-0.7-0.7-0.2c-0.3,0.8-0.5,1.6-0.8,2.4&#10;&#9;&#9;c-0.3,0.7-0.4,1.4-0.5,2.1c0,1,0.9,1.3,1.7,1.3C341.4,238.3,341.4,237.5,340.9,237.5z"/>
	<path class="st7_family-1-12" d="M344.7,237.4c-0.2,0.7-0.6,1.3-1.2,1.6c-0.8,0.3-1.6,0.4-2.5,0.2c-0.5-0.1-0.7,0.7-0.2,0.7&#10;&#9;&#9;c0.9,0.2,1.9,0.1,2.8-0.2c0.8-0.4,1.4-1.1,1.7-2C345.5,237.3,344.9,236.9,344.7,237.4z"/>
	<path class="st12_family-1-12" d="M384.2,293.7l-3.2,0.7c0.6-0.1,1.3-2.5,1.5-3c1.8-5.1,0.9-10.7-2.3-15l-26.5,9.1&#10;&#9;&#9;c-5.5,2.6-26.2,22.6-16.8,33.8c6.8,8.1,33,1.1,49.3-6.9C385.7,306.3,385,300,384.2,293.7z"/>
	<path class="st7_family-1-12" d="M384.2,293.1c-11.8,2.3-23.2,6.5-33.7,12.4c-1.5,0.9-0.2,3.2,1.4,2.4c10.1-5.7,21.1-9.7,32.5-12&#10;&#9;&#9;C384.3,294.9,384.2,294,384.2,293.1z"/>
</g>
<g id="Mother_family-1-12">
	<path class="st7_family-1-12" d="M193.2,244.2c0,0-6.7-4.4-8.7-3.4c-5.8,3-8,17.1-6.5,23.5s11.3,9.1,14.2,6.9c3.6-2.8-2.6-9.4-2.6-9.4"/>
	<path class="st0_family-1-12" d="M227.3,230.1c0.9,1.2,10.2,35.2,10.5,40.7s-3,15.7-20.8,10.2s-32-21.1-32-21.1s-3.2-11.8,8.2-16.6l7.7,6.3&#10;&#9;&#9;c0,0-6.8-12.1-4.4-22.9c0,0,30.2-2.4,41.3-9.9c0,0,23.8,24.7,27.1,36.1c3.3,11.5-8.4,15.4-14.1,14.2s-19.6-10.5-19.6-10.5"/>
	<path class="st6_family-1-12" d="M227.3,230.1c0.9,1.2,10.2,35.2,10.5,40.7s-3,15.7-20.8,10.2s-32-21.1-32-21.1s-3.2-11.8,8.2-16.6l7.7,6.3&#10;&#9;&#9;c0,0-6.8-12.1-4.4-22.9c0,0,30.2-2.4,41.3-9.9c0,0,23.8,24.7,27.1,36.1c3.3,11.5-8.4,15.4-14.1,14.2s-19.6-10.5-19.6-10.5"/>
	<polygon class="st7_family-1-12" points="201,249.8 211.9,260.1 198.2,243.4 &#9;"/>
	<g id="Character_Female_1_family-1-12">
		<path class="st5_family-1-12" d="M218.7,213.8c0.9,0.1,5.4,10,5.9,10.7s5.1,5.3,7.4,6.3s13-0.9,13.8,1.4s-4.6,2-4.6,2s5.6,4.9,6.4,7.1&#10;&#9;&#9;&#9;s-1.1,7.1-1.9,7.2s-9.2-3.1-10.9-4.4c-1.8-1.8-3.4-3.7-4.9-5.8c0,0-18.9-3.6-25.1-10.7s1.8-19.4,1.8-19.4&#10;&#9;&#9;&#9;C210,211.2,214.2,213.1,218.7,213.8z"/>
		<path class="st5_family-1-12" d="M239.2,206.7c0,0,15.9,15.1,17.1,16.9s6.9,11.2,8.1,9.9s-1.3-5.6-1.3-5.6s9.4,7.4,11,5.8s0.1-8.6-1-10.5&#10;&#9;&#9;&#9;s-8.4-4.9-9.2-5.6s-17.9-21.3-17.9-21.3"/>
		<path class="st8_family-1-12" d="M210.1,171.1c6.4-2.6,13.3-3.6,20.1-2.8c3.3,0.3,6.5,1.7,9,3.9c3.2,3,4.6,7.6,6.3,11.5&#10;&#9;&#9;&#9;c2.7,5.7,5.7,11.2,8.9,16.6c3,5.1,5.6,10.4,9.3,14.9l-10.4,7.8l-15.7-18.3l-23.4,12.1l20.8,10.6c1.8,3.2-13.4,12.9-13.4,12.9&#10;&#9;&#9;&#9;s-23.4-2.4-28.2-25.9C186.6,181.2,210,171.1,210.1,171.1z"/>
		<line class="st13_family-1-12" x1="288.7" y1="217" x2="286.7" y2="214.8"/>
		<path class="st8_family-1-12" d="M238.3,196.2c0,0,0.8,21.2-0.5,23.5s-23.6,12.1-23.6,12.1l-14-17.4L238.3,196.2z"/>
		<path class="st12_family-1-12" d="M230.5,159.2c0,0,2.9,9,1,11.9s-9.9-0.2-9.9-0.2"/>
		<path class="st5_family-1-12" d="M231.7,154.9c0,0-1.9,17.4-9.2,18.4s-10.1-8.3-10.1-8.3s0-11.9,2.6-14.1S228.5,149.5,231.7,154.9z"/>
		<path class="st12_family-1-12" d="M234.7,153.3c0,0-5.6,6.2-8.7,7.6s-6.1,0-7.4,2.2s0.6,16.6-3,18.8s-9-6.1-12.3-2.7s-2.6,10.3-7.1,11.3&#10;&#9;&#9;&#9;s-8.9-6.5-4.1-11.4s5.6-7.5,3.4-9.6c-3.3-3.1,1.6-12.5,6-13.8s6.7-10.7,14.5-12.2S233.7,147.7,234.7,153.3z"/>
		<path class="st7_family-1-12" d="M236.6,189.5c0.1,9.8,0,19.6-0.3,29.4c0,1.1,1.7,1.1,1.7,0c0.3-9.8,0.4-19.6,0.3-29.4c-0.1-0.5-0.5-0.8-1-0.8&#10;&#9;&#9;&#9;C236.9,188.8,236.6,189.1,236.6,189.5z"/>
		<path class="st7_family-1-12" d="M234.7,226.8c-11.4-5-19.7-15.1-22.4-27.3c-0.2-1.1-1.9-0.6-1.7,0.5c2.9,12.6,11.5,23,23.2,28.3&#10;&#9;&#9;&#9;C234.9,228.8,235.8,227.3,234.7,226.8z"/>
		<path class="st7_family-1-12" d="M229.2,146.5c0,0-12.9,3.2-13.5,14.8c0,0-2.1-7.1,0.8-12.6s8.8-5,8.8-5S229.1,144.5,229.2,146.5z"/>
	</g>
</g>
<g id="Plant_family-1-12">
	<polyline class="st8_family-1-12" points="289.6,181.8 289.6,202 322.3,202 322.3,181.8 &#9;"/>
	<ellipse class="st8_family-1-12" cx="306" cy="181.8" rx="16.4" ry="8"/>
	<ellipse class="st10_family-1-12" cx="306" cy="181.8" rx="16.4" ry="8"/>
	<ellipse class="st8_family-1-12" cx="306" cy="202.8" rx="16.4" ry="8"/>
	<path class="st14_family-1-12" d="M324.3,134.8c-3.5-1.4-8.2-6.1-12.4-6c-1.6,3.9-2,8.4-2.5,12.4c-0.8,6.9-0.9,13.8-0.5,20.7&#10;&#9;&#9;c0.1,1.5,0.2,3.1,0.4,4.6c0,0.5,0.2,0.9,0.4,1.3v16c0.1,0.3,0.3,0.5,0.6,0.4c0.2,0,0.4-0.2,0.4-0.4v-15.4c1.6-0.5,3.2-1.3,4.7-2.2&#10;&#9;&#9;c3.1-1.9,5.4-4.8,6.6-8.3c2.6-7.4,1-15.6,3.5-22.8C325,135.1,324.6,134.9,324.3,134.8z"/>
	<path class="st15_family-1-12" d="M317.2,122.7c-2,1.2-3.6,2.8-4.7,4.8c-0.3,0.4-0.5,0.9-0.7,1.4c0,0.1-0.1,0.2-0.1,0.3l0,0&#10;&#9;&#9;c-0.3,0.8-0.6,1.7-0.8,2.5c0.4-0.7,1-1.1,1.7-1.4c0.9-0.4,1.8-0.5,2.7-0.2c0.9,0.3,1.7,0.8,2.5,1.3c1.2,0.7,2.3,1.5,3.5,2.2&#10;&#9;&#9;c5.4,3.4,12.6,3.8,16.8-1.2c0-0.2,0.1-0.4,0.1-0.6C338.9,128.5,329.2,115.8,317.2,122.7z"/>
	<path class="st14_family-1-12" d="M335.7,134.6c0.2-0.2,0.4-0.3,0.7-0.4c0-0.1,0-0.3-0.1-0.4c-3.3-3.4-6.8-6.7-11.3-8.3&#10;&#9;&#9;c-3.2-1.2-6.7-1.6-10.1-1c-0.4,0.4-0.7,0.9-1,1.3c3.6-1.2,8.3-0.5,11.6,1c4,1.7,7.1,4.7,10.1,7.8&#10;&#9;&#9;C335.6,134.6,335.6,134.6,335.7,134.6z"/>
	<path class="st14_family-1-12" d="M280.8,142c-4.8,2.5-7.7,7.6-7.3,13c0.4,9.6,16.3,0.2,20.5-7.9s4.9,3.5,4.9,3.5"/>
	<path class="st15_family-1-12" d="M295.1,138.6c-3,0-6,0.4-8.8,1.2c-1.9,0.5-3.8,1.2-5.5,2.1c1,0.7,2.1,1.2,3.2,1.7c2,0.8,4.1,1.8,5.1,3.7&#10;&#9;&#9;c0.3,0.5,0.5,0.9,0.6,1.4c1,3.2,0.1,7,1.4,10.2s4,6,7.7,6.2c4.5,0.3,6.5-4,7.4-7.8s2.1-8.8,0.7-12.6&#10;&#9;&#9;C305.4,140.4,299.4,138.8,295.1,138.6z"/>
	<path class="st14_family-1-12" d="M301,153.6c-1.9-6.1-5.9-11.9-11.7-14.5h-0.2l-0.3,0.1c-0.4,0.1-0.7,0.2-1.1,0.3c6.8,2.5,11.1,9.2,12.8,16.1&#10;&#9;&#9;c2.2,8.8,1.5,18.2,1.5,27.2c0,0.3,0.2,0.5,0.5,0.5s0.5-0.2,0.5-0.5C303,173.2,303.9,162.9,301,153.6z"/>
</g>
<g id="Wall_Photo_family-1-12">
	<path class="st9_family-1-12" d="M410.7,153.8c5.2-1,10.5,0.8,13.9,4.9c4.7,5.2,6.7,12.2,10.1,18.2c2.8,4.9,7.6,10.4,13.1,12.2l0.5-27.6&#10;&#9;&#9;c-2.8,1.6-6.2,1.9-9.2,0.7c-10-3.7-7.6-18.6-17.6-21.7c-10.7-3.4-14.1,10.7-24.4,10.3c-2.7-0.1-5.4-1-7.6-2.5l-0.2,11&#10;&#9;&#9;C395.7,162.5,403.2,155.1,410.7,153.8z"/>
	<path class="st9_family-1-12" d="M427.7,172c-2.2-4.6-4.5-10.6-9.2-13.2c-7.1-3.8-13.3,2-19.5,4.6c-3.1,1.4-6.6,1.5-9.8,0.4l-0.1,3.4&#10;&#9;&#9;c0,1.9,1,3.7,2.7,4.5l50.4,25.1c1.9,0.9,4.1,0.2,5-1.7c0.2-0.5,0.4-1,0.4-1.6v-0.2C438.9,191,431.6,180.1,427.7,172z"/>
	<path class="st9_family-1-12" d="M397.1,146.7c5.1,0.2,7.4-3.8,10.7-6.7c3.5-3.3,8.4-4.7,13.2-3.9c6,1.1,9.5,5.3,11.9,10.7&#10;&#9;&#9;c2.1,4.9,2.9,9.4,8.5,10.9c2.4,0.7,5.1,0.3,7.1-1.2l0.4-22.3c0-1.9-1-3.6-2.7-4.5l-50-25.4c-2-1-4.4-0.3-5.4,1.7&#10;&#9;&#9;c-0.3,0.6-0.5,1.2-0.5,1.9l-0.7,35.2C391.5,145.2,394.2,146.6,397.1,146.7z"/>
	<path class="st12_family-1-12" d="M421.5,140.4c10,3.1,7.6,18.1,17.6,21.7c3,1.2,6.4,0.9,9.2-0.7l0.1-5c-2.1,1.5-4.7,1.9-7.1,1.2&#10;&#9;&#9;c-5.6-1.5-6.4-6-8.5-10.9c-2.3-5.4-5.8-9.6-11.9-10.7c-4.8-0.8-9.6,0.6-13.1,4c-3.3,2.9-5.6,6.9-10.7,6.7c-2.9-0.1-5.6-1.5-7.5-3.7&#10;&#9;&#9;l-0.1,5.2c2.2,1.6,4.9,2.5,7.6,2.5C407.4,151.1,410.8,137,421.5,140.4z"/>
	<path class="st12_family-1-12" d="M434.7,176.9c-3.4-6-5.4-13-10.1-18.2c-3.4-4-8.7-5.9-13.9-4.9c-7.5,1.3-15,8.7-21.4,5.4l-0.1,4.6&#10;&#9;&#9;c3.2,1.1,6.7,1,9.8-0.4c6.2-2.5,12.4-8.4,19.5-4.6c4.7,2.5,7,8.6,9.2,13.2c3.9,8.2,11.2,19.1,20.1,21.4l0.1-4.3&#10;&#9;&#9;C442.4,187.4,437.5,181.8,434.7,176.9z"/>
</g>
<g id="Boxes_family-1-12">
	<path class="st8_family-1-12" d="M286.6,314.8v-22.5l20.2-11.2v22.4L286.6,314.8z"/>
	<path class="st8_family-1-12" d="M286.6,292.2L267,281c0,0-0.5,22.7,0,23.1s19.6,10.7,19.6,10.7L286.6,292.2z"/>
	<polygon class="st9_family-1-12" points="267,281 286.6,269 306.8,281 286.6,292.2 &#9;"/>
	<path class="st8_family-1-12" d="M230.2,351.9v-12.2l10.9-6.1v12.1L230.2,351.9z"/>
	<path class="st8_family-1-12" d="M230.2,339.6l-10.7-6.1c0,0-0.3,12.3,0,12.5s10.7,5.8,10.7,5.8V339.6z"/>
	<polygon class="st9_family-1-12" points="219.5,333.5 230.2,327 241.1,333.5 230.2,339.6 &#9;"/>
	<path class="st8_family-1-12" d="M243.5,324.1v-12.2l11-6.1v12.1L243.5,324.1z"/>
	<path class="st10_family-1-12" d="M286.6,314.8v-22.5l20.2-11.2v22.4L286.6,314.8z"/>
	<path class="st10_family-1-12" d="M230.2,351.9v-12.2l10.9-6.1v12.1L230.2,351.9z"/>
	<path class="st10_family-1-12" d="M243.5,324.1v-12.2l11-6.1v12.1L243.5,324.1z"/>
	<path class="st8_family-1-12" d="M243.5,311.9l-10.7-6.1c0,0-0.3,12.3,0,12.5s10.7,5.8,10.7,5.8V311.9z"/>
	<polygon class="st9_family-1-12" points="232.9,305.8 243.5,299.3 254.5,305.8 243.5,311.9 &#9;"/>
</g>
<g id="Father_family-1-12">
	<path class="st5_family-1-12" d="M174.6,224.2l4.4,6.4c0,0,18.2-6.9,19.8-8.2s4.4-9.2,6.1-9.5s0,7.1,0,7.1s7.4-4.6,9.5-4.9s5.6,0.7,6.1,2.1&#10;&#9;&#9;s-3.8,7.8-5.6,8.7s-8.7,2.8-8.7,2.8s-20.5,14.9-29.8,16.2S161.4,228,161.4,228L174.6,224.2z"/>
	<path class="st7_family-1-12" d="M117.8,287.8c0,0-6.7-4.4-8.7-3.4c-5.8,3-8,17.1-6.5,23.5s11.3,9.1,14.2,6.9c3.6-2.8-2.6-9.4-2.6-9.4"/>
	<path class="st0_family-1-12" d="M152,273.8c0.9,1.2,10.2,35.2,10.5,40.7s-3,15.7-20.8,10.2s-32-21.1-32-21.1s-3.2-11.8,8.2-16.6l7.7,6.3&#10;&#9;&#9;c0,0-6.8-12.1-4.4-22.9c0,0,30.2-2.4,41.3-9.9c0,0,23.8,24.7,27.1,36.1s-8.4,15.4-14.2,14.2s-19.6-10.5-19.6-10.5"/>
	<path class="st6_family-1-12" d="M152,273.8c0.9,1.2,10.2,35.2,10.5,40.7s-3,15.7-20.8,10.2s-32-21.1-32-21.1s-3.2-11.8,8.2-16.6l7.7,6.3&#10;&#9;&#9;c0,0-6.8-12.1-4.4-22.9c0,0,30.2-2.4,41.3-9.9c0,0,23.8,24.7,27.1,36.1s-8.4,15.4-14.2,14.2s-19.6-10.5-19.6-10.5"/>
	<polygon class="st7_family-1-12" points="125.7,293.4 136.5,303.8 122.9,287 &#9;"/>
	<path class="st4_family-1-12 targetColor" d="M165.9,201.3c0,0,13,20.3,11,26c-1,2.8-16.9,7.1-16.9,7.1l-1.5-16.6" style="fill: rgb(104, 225, 253);"/>
	<path class="st6_family-1-12" d="M165.9,201.3c0,0,13,20.3,11,26c-1,2.8-16.9,7.1-16.9,7.1l-1.5-16.6"/>
	<path class="st4_family-1-12 targetColor" d="M124.5,246.2c0,0-6.4-0.5-15.2-10c0,0,4.6-14.3,15.3-23.1s25.6-15.6,36.7-12.5s-1.8,39.2-1.6,42.2&#10;&#9;&#9;s4.6,19.7,4.6,19.7s-26.6,10.6-43.1,8L124.5,246.2z" style="fill: rgb(104, 225, 253);"/>
	<path class="st5_family-1-12" d="M125.1,244.3c1,0.1-4,7.6-3.4,8.3s15.3,10.8,17.8,11.9s14.4-2.5,15.3,0s-5,2.2-5,2.2s6.1,5.4,7,7.8&#10;&#9;&#9;s-1.2,7.8-2.1,7.9s-10.1-3.4-11.9-4.9s-5.4-6.3-5.4-6.3s-20.7-4-27.6-11.7s2-21.3,2-21.3C115.5,241.4,120.1,243.5,125.1,244.3z"/>
	<path class="st7_family-1-12" d="M171.1,196.7c0,0,4.3,0.1,5.6-3.4s-2.8-6.8-2.8-6.8s1-5.9-6.8-9.4s-12.5,0.9-12.5,0.9s-5.6-1.1-8.7,2.8&#10;&#9;&#9;s-3.7,7.3-2.8,10.1c-1.1,1.7-1.2,3.9-0.4,5.7c1.3,3.3,3.9,9.5,9.5,9.5"/>
	<path class="st5_family-1-12" d="M172.3,193.1c0,0-6.4,15.9-9.7,17.6c-5.4,2.6-11.2,1.2-12.6-4.5c0,0-5.4-6.2-2.6-9.2s5.4,1.3,5.4,1.3&#10;&#9;&#9;s3.2-10.1,11.4-9.9S172.3,193.1,172.3,193.1z"/>
	<path class="st7_family-1-12" d="M172.1,193.1c0,0-0.1,1.3-5.1-1.6s-12.6,6-14,11.5c0,0-1.7-9.1,0.8-13.1s5.1-5.9,10-5.1&#10;&#9;&#9;S173.2,188.5,172.1,193.1z"/>
</g>
</svg>