<svg xmlns="http://www.w3.org/2000/svg" xmlns:xlink="http://www.w3.org/1999/xlink" width="1920" zoomAndPan="magnify" viewBox="0 0 1440 809.999993" height="1080" preserveAspectRatio="xMidYMid meet" version="1.0"><defs><clipPath id="a5d5419584"><path d="M 412 133 L 945 133 L 945 697 L 412 697 Z M 412 133 " clip-rule="nonzero"/></clipPath><clipPath id="088e3c5dd6"><path d="M 411.449219 156.222656 L 901.28125 54.667969 L 1021.71875 635.5625 L 531.882812 737.121094 Z M 411.449219 156.222656 " clip-rule="nonzero"/></clipPath><clipPath id="b2e88d5d96"><path d="M 411.449219 156.222656 L 901.28125 54.667969 L 1021.71875 635.5625 L 531.882812 737.121094 Z M 411.449219 156.222656 " clip-rule="nonzero"/></clipPath></defs><g clip-path="url(#a5d5419584)"><g clip-path="url(#088e3c5dd6)"><g clip-path="url(#b2e88d5d96)"><path fill="#e7e3d9" d="M 743.121094 693.359375 C 692.4375 703.867188 638.363281 684.820312 605.871094 644.164062 C 571.191406 600.863281 565.683594 539.117188 592.398438 490.378906 C 612.617188 453.375 650.152344 425.179688 700.898438 408.824219 C 716.964844 403.667969 732.621094 400.058594 747.753906 396.558594 C 763.761719 392.875 778.894531 389.371094 792.265625 384.414062 C 812.445312 377.128906 827.140625 366.246094 831.476562 355.503906 C 835.847656 344.933594 829.429688 328.039062 818.417969 320.660156 C 805.125 311.933594 783.320312 312.261719 767.8125 321.855469 C 761.675781 325.679688 754.507812 331.539062 747.199219 337.613281 C 737.871094 345.378906 727.46875 354.097656 715.023438 361.78125 C 665.152344 392.902344 600.914062 396.925781 547.496094 372.273438 C 506.199219 353.3125 471.960938 318.300781 448.386719 271.421875 C 429.320312 233.085938 420.046875 193.632812 412.15625 156.441406 L 521.488281 133.410156 C 527.894531 163.433594 535.152344 194.921875 548.253906 221.1875 C 560.113281 244.976562 576.511719 262.539062 594.246094 270.710938 C 613.210938 279.539062 638.019531 277.859375 655.792969 266.882812 C 661.753906 263.09375 668.609375 257.480469 675.78125 251.621094 C 685.59375 243.570312 696.625 234.355469 710.082031 226.28125 C 762.886719 194.367188 831.363281 194.9375 880.632812 227.738281 C 936.0625 264.734375 959.609375 337.867188 935.003906 397.65625 C 918.3125 438.484375 881.296875 470.949219 830.460938 489.507812 C 810.800781 496.683594 791.648438 501.015625 773.058594 505.417969 C 759.5 508.59375 746.8125 511.589844 735.007812 515.3125 C 712.269531 522.578125 696.519531 532.769531 690.300781 544.085938 C 685.390625 552.941406 686.609375 566.726562 692.964844 574.523438 C 699.355469 582.492188 712.40625 586.53125 722.046875 583.804688 L 752.871094 691.15625 C 749.589844 692.019531 746.269531 692.707031 743.121094 693.359375 Z M 743.121094 693.359375 " fill-opacity="1" fill-rule="nonzero"/></g></g></g></svg>