<svg xmlns="http://www.w3.org/2000/svg" xmlns:xlink="http://www.w3.org/1999/xlink" width="500" zoomAndPan="magnify" viewBox="0 0 375 374.999991" height="500" preserveAspectRatio="xMidYMid meet" version="1.0"><defs><g/><clipPath id="70f7f59d0c"><path d="M 142.109375 140.292969 L 185.976562 140.292969 L 185.976562 184.160156 L 142.109375 184.160156 Z M 142.109375 140.292969 " clip-rule="nonzero"/></clipPath><clipPath id="f41399f02b"><path d="M 164.042969 140.292969 C 151.929688 140.292969 142.109375 150.113281 142.109375 162.226562 C 142.109375 174.339844 151.929688 184.160156 164.042969 184.160156 C 176.15625 184.160156 185.976562 174.339844 185.976562 162.226562 C 185.976562 150.113281 176.15625 140.292969 164.042969 140.292969 Z M 164.042969 140.292969 " clip-rule="nonzero"/></clipPath><clipPath id="878b425025"><path d="M 142.367188 204.902344 L 178.414062 204.902344 L 178.414062 214.585938 L 142.367188 214.585938 Z M 142.367188 204.902344 " clip-rule="nonzero"/></clipPath><clipPath id="cd2c231c17"><path d="M 142.367188 220.78125 L 178.414062 220.78125 L 178.414062 230.46875 L 142.367188 230.46875 Z M 142.367188 220.78125 " clip-rule="nonzero"/></clipPath><clipPath id="6e47d106cc"><path d="M 142.367188 236.664062 L 178.414062 236.664062 L 178.414062 246.347656 L 142.367188 246.347656 Z M 142.367188 236.664062 " clip-rule="nonzero"/></clipPath></defs><g fill="#ff914d" fill-opacity="1"><g transform="translate(67.523602, 183.45726)"><g><path d="M 0.796875 -56 L 46.484375 -56 L 46.484375 -36.71875 L 21.59375 -36.71875 L 21.59375 -35.28125 L 46.484375 -35.28125 L 46.484375 -16.953125 L 21.59375 -16.953125 L 21.59375 0 L 0.796875 0 Z M 0.796875 -56 "/></g></g></g><g fill="#ff914d" fill-opacity="1"><g transform="translate(118.479018, 183.45726)"><g><path d="M 0.796875 -56.078125 L 20.484375 -56.078125 L 20.484375 0 L 0.796875 0 Z M 0.796875 -56.078125 "/></g></g></g><g fill="#ff914d" fill-opacity="1"><g transform="translate(143.43766, 183.45726)"><g/></g></g><g fill="#ff914d" fill-opacity="1"><g transform="translate(163.356092, 183.45726)"><g/></g></g><g fill="#ff914d" fill-opacity="1"><g transform="translate(183.281411, 183.45726)"><g><path d="M 34.078125 -44.875 L 55.125 -44.875 L 61.359375 -22.40625 L 67.6875 -44.875 L 88.71875 -44.875 L 73.921875 0 L 49.921875 0 C 48.640625 -3.625 47.34375 -7.207031 46.03125 -10.75 C 44.726562 -14.300781 43.410156 -17.863281 42.078125 -21.4375 L 40.953125 -21.4375 L 44 -13.046875 L 39.4375 0 L 15.28125 0 L 0.484375 -44.875 L 21.515625 -44.875 L 27.765625 -22.40625 Z M 34.078125 -44.875 "/></g></g></g><g fill="#ff914d" fill-opacity="1"><g transform="translate(66.744312, 246.292719)"><g><path d="M 17.921875 -27.59375 L 16.71875 -27.59375 L 22.078125 -13.84375 L 22.078125 0 L 0.875 0 L 0.875 -56 L 24.234375 -56 L 35.6875 -29.765625 L 47.125 -56 L 70.40625 -56 L 70.40625 0 L 49.28125 0 L 49.28125 -13.84375 L 54.640625 -27.59375 L 53.4375 -27.59375 L 45.4375 -7.046875 L 25.921875 -7.046875 Z M 17.921875 -27.59375 "/></g></g></g><g fill="#ff914d" fill-opacity="1"><g transform="translate(141.627119, 246.292719)"><g/></g></g><g fill="#ff914d" fill-opacity="1"><g transform="translate(161.545551, 246.292719)"><g/></g></g><g fill="#ff914d" fill-opacity="1"><g transform="translate(181.47087, 246.292719)"><g><path d="M 48.078125 -56 L 48.078125 -22.40625 C 48.078125 -19.144531 47.460938 -16.070312 46.234375 -13.1875 C 45.015625 -10.3125 43.3125 -7.78125 41.125 -5.59375 C 38.9375 -3.40625 36.414062 -1.695312 33.5625 -0.46875 C 30.707031 0.75 27.625 1.359375 24.3125 1.359375 C 21.0625 1.359375 17.992188 0.75 15.109375 -0.46875 C 12.234375 -1.695312 9.710938 -3.40625 7.546875 -5.59375 C 5.390625 -7.78125 3.695312 -10.3125 2.46875 -13.1875 C 1.25 -16.070312 0.640625 -19.144531 0.640625 -22.40625 C 0.640625 -25.707031 1.25 -28.785156 2.46875 -31.640625 C 3.695312 -34.492188 5.390625 -37.015625 7.546875 -39.203125 C 9.710938 -41.390625 12.234375 -43.09375 15.109375 -44.3125 C 17.992188 -45.539062 21.0625 -46.15625 24.3125 -46.15625 L 27.28125 -46.15625 L 27.28125 -26.484375 L 24.3125 -26.484375 C 23.195312 -26.484375 22.25 -26.082031 21.46875 -25.28125 C 20.695312 -24.476562 20.3125 -23.519531 20.3125 -22.40625 C 20.3125 -21.28125 20.695312 -20.316406 21.46875 -19.515625 C 22.25 -18.710938 23.195312 -18.3125 24.3125 -18.3125 C 25.488281 -18.3125 26.460938 -18.710938 27.234375 -19.515625 C 28.015625 -20.316406 28.40625 -21.28125 28.40625 -22.40625 L 28.40625 -56 Z M 48.078125 -56 "/></g></g></g><g fill="#ff914d" fill-opacity="1"><g transform="translate(234.026136, 246.292719)"><g><path d="M 0.796875 -44.875 L 20.484375 -44.875 L 20.484375 0 L 0.796875 0 Z M 0.796875 -44.875 "/></g></g></g><g fill="#ff914d" fill-opacity="1"><g transform="translate(258.984079, 246.292719)"><g><path d="M 23.921875 -46.234375 C 27.117188 -46.234375 30.101562 -45.632812 32.875 -44.4375 C 35.65625 -43.238281 38.109375 -41.582031 40.234375 -39.46875 C 42.367188 -37.363281 44.035156 -34.910156 45.234375 -32.109375 C 46.441406 -29.316406 47.046875 -26.320312 47.046875 -23.125 L 47.046875 0 L 27.84375 0 L 27.84375 -23.125 C 27.84375 -24.1875 27.453125 -25.117188 26.671875 -25.921875 C 25.898438 -26.722656 24.984375 -27.125 23.921875 -27.125 C 22.796875 -27.125 21.847656 -26.722656 21.078125 -25.921875 C 20.304688 -25.117188 19.921875 -24.1875 19.921875 -23.125 C 19.921875 -22.050781 20.304688 -21.113281 21.078125 -20.3125 C 21.847656 -19.519531 22.796875 -19.125 23.921875 -19.125 L 26.71875 -19.125 L 26.71875 0 L 23.921875 0 C 20.722656 0 17.722656 -0.597656 14.921875 -1.796875 C 12.117188 -2.992188 9.664062 -4.660156 7.5625 -6.796875 C 5.457031 -8.929688 3.800781 -11.382812 2.59375 -14.15625 C 1.394531 -16.925781 0.796875 -19.914062 0.796875 -23.125 C 0.796875 -26.320312 1.394531 -29.316406 2.59375 -32.109375 C 3.800781 -34.910156 5.457031 -37.363281 7.5625 -39.46875 C 9.664062 -41.582031 12.117188 -43.238281 14.921875 -44.4375 C 17.722656 -45.632812 20.722656 -46.234375 23.921875 -46.234375 Z M 23.921875 -46.234375 "/></g></g></g><g clip-path="url(#70f7f59d0c)"><g clip-path="url(#f41399f02b)"><path fill="#75b2b4" d="M 142.109375 140.292969 L 185.976562 140.292969 L 185.976562 184.160156 L 142.109375 184.160156 Z M 142.109375 140.292969 " fill-opacity="1" fill-rule="nonzero"/></g></g><g clip-path="url(#878b425025)"><path fill="#d40684" d="M 142.367188 204.902344 L 178.421875 204.902344 L 178.421875 214.585938 L 142.367188 214.585938 Z M 142.367188 204.902344 " fill-opacity="1" fill-rule="nonzero"/></g><g clip-path="url(#cd2c231c17)"><path fill="#d40684" d="M 142.367188 220.78125 L 178.421875 220.78125 L 178.421875 230.46875 L 142.367188 230.46875 Z M 142.367188 220.78125 " fill-opacity="1" fill-rule="nonzero"/></g><g clip-path="url(#6e47d106cc)"><path fill="#d40684" d="M 142.367188 236.664062 L 178.421875 236.664062 L 178.421875 246.347656 L 142.367188 246.347656 Z M 142.367188 236.664062 " fill-opacity="1" fill-rule="nonzero"/></g><g fill="#000000" fill-opacity="1"><g transform="translate(335.999982, 360.492956)"><g><path d="M 0.15625 0 L 2.75 -6.296875 L 3.484375 -6.296875 L 6.078125 0 L 5.234375 0 L 4.640625 -1.4375 L 1.578125 -1.4375 L 1 0 Z M 1.875 -2.171875 L 4.34375 -2.171875 L 3.109375 -5.1875 Z M 1.875 -2.171875 "/></g></g></g><g fill="#000000" fill-opacity="1"><g transform="translate(342.228028, 360.492956)"><g><path d="M 0.921875 0 L 0.921875 -6.296875 L 3.046875 -6.296875 C 3.523438 -6.296875 3.9375 -6.207031 4.28125 -6.03125 C 4.632812 -5.863281 4.90625 -5.617188 5.09375 -5.296875 C 5.289062 -4.984375 5.390625 -4.613281 5.390625 -4.1875 C 5.390625 -3.75 5.289062 -3.375 5.09375 -3.0625 C 4.90625 -2.75 4.632812 -2.503906 4.28125 -2.328125 C 3.9375 -2.148438 3.523438 -2.0625 3.046875 -2.0625 L 1.703125 -2.0625 L 1.703125 0 Z M 1.703125 -2.8125 L 3.03125 -2.8125 C 4.0625 -2.8125 4.578125 -3.265625 4.578125 -4.171875 C 4.578125 -5.085938 4.0625 -5.546875 3.03125 -5.546875 L 1.703125 -5.546875 Z M 1.703125 -2.8125 "/></g></g></g><g fill="#000000" fill-opacity="1"><g transform="translate(347.979073, 360.492956)"><g><path d="M 0.921875 0 L 0.921875 -6.296875 L 3.328125 -6.296875 C 3.765625 -6.296875 4.144531 -6.210938 4.46875 -6.046875 C 4.789062 -5.890625 5.039062 -5.660156 5.21875 -5.359375 C 5.394531 -5.054688 5.484375 -4.695312 5.484375 -4.28125 C 5.484375 -3.769531 5.351562 -3.347656 5.09375 -3.015625 C 4.832031 -2.679688 4.46875 -2.457031 4 -2.34375 L 5.59375 0 L 4.640625 0 L 3.09375 -2.265625 L 1.703125 -2.265625 L 1.703125 0 Z M 1.703125 -3.015625 L 3.234375 -3.015625 C 3.691406 -3.015625 4.046875 -3.125 4.296875 -3.34375 C 4.554688 -3.5625 4.6875 -3.875 4.6875 -4.28125 C 4.6875 -4.675781 4.554688 -4.984375 4.296875 -5.203125 C 4.046875 -5.429688 3.691406 -5.546875 3.234375 -5.546875 L 1.703125 -5.546875 Z M 1.703125 -3.015625 "/></g></g></g><g fill="#000000" fill-opacity="1"><g transform="translate(354.108116, 360.492956)"><g><path d="M 0.921875 0 L 0.921875 -6.296875 L 4.75 -6.296875 L 4.75 -5.5625 L 1.703125 -5.5625 L 1.703125 -3.578125 L 4.515625 -3.578125 L 4.515625 -2.84375 L 1.703125 -2.84375 L 1.703125 -0.734375 L 4.84375 -0.734375 L 4.84375 0 Z M 0.921875 0 "/></g></g></g><g fill="#000000" fill-opacity="1"><g transform="translate(359.535156, 360.492956)"><g><path d="M 3.015625 0.109375 C 2.515625 0.109375 2.078125 0.0234375 1.703125 -0.140625 C 1.335938 -0.304688 1.050781 -0.546875 0.84375 -0.859375 C 0.644531 -1.171875 0.546875 -1.53125 0.546875 -1.9375 L 1.328125 -1.9375 C 1.335938 -1.53125 1.5 -1.210938 1.8125 -0.984375 C 2.125 -0.753906 2.523438 -0.640625 3.015625 -0.640625 C 3.460938 -0.640625 3.816406 -0.722656 4.078125 -0.890625 C 4.335938 -1.066406 4.46875 -1.3125 4.46875 -1.625 C 4.46875 -1.914062 4.335938 -2.148438 4.078125 -2.328125 C 3.828125 -2.503906 3.421875 -2.660156 2.859375 -2.796875 C 2.078125 -2.984375 1.503906 -3.222656 1.140625 -3.515625 C 0.785156 -3.804688 0.609375 -4.195312 0.609375 -4.6875 C 0.609375 -5.21875 0.8125 -5.640625 1.21875 -5.953125 C 1.625 -6.265625 2.171875 -6.421875 2.859375 -6.421875 C 3.566406 -6.421875 4.125 -6.242188 4.53125 -5.890625 C 4.945312 -5.535156 5.160156 -5.050781 5.171875 -4.4375 L 4.390625 -4.4375 C 4.378906 -4.8125 4.238281 -5.109375 3.96875 -5.328125 C 3.695312 -5.546875 3.328125 -5.65625 2.859375 -5.65625 C 2.410156 -5.65625 2.054688 -5.566406 1.796875 -5.390625 C 1.546875 -5.210938 1.421875 -4.976562 1.421875 -4.6875 C 1.421875 -4.425781 1.539062 -4.207031 1.78125 -4.03125 C 2.019531 -3.851562 2.441406 -3.6875 3.046875 -3.53125 C 3.847656 -3.332031 4.421875 -3.082031 4.765625 -2.78125 C 5.109375 -2.488281 5.28125 -2.113281 5.28125 -1.65625 C 5.28125 -1.113281 5.070312 -0.679688 4.65625 -0.359375 C 4.25 -0.046875 3.703125 0.109375 3.015625 0.109375 Z M 3.015625 0.109375 "/></g></g></g></svg>