<svg width="272" height="287" viewBox="0 0 272 287" fill="none" xmlns="http://www.w3.org/2000/svg">
<g opacity="0.36">
<mask id="mask0_280_263" style="mask-type:luminance" maskUnits="userSpaceOnUse" x="1" y="16" width="270" height="270">
<path d="M1.33301 16H270.531V285.198H1.33301V16Z" fill="white"/>
</mask>
<g mask="url(#mask0_280_263)">
<path d="M265.75 159.052L144.411 280.391C143.833 280.974 143.203 281.49 142.521 281.943C141.839 282.401 141.12 282.781 140.365 283.099C139.604 283.411 138.823 283.646 138.021 283.807C137.219 283.964 136.406 284.047 135.583 284.047C134.766 284.047 133.953 283.964 133.151 283.807C132.349 283.646 131.568 283.411 130.807 283.099C130.052 282.781 129.333 282.401 128.651 281.943C127.969 281.49 127.339 280.974 126.76 280.391L5.41667 159.052C4.83854 158.474 4.32292 157.844 3.86979 157.161C3.41146 156.479 3.02604 155.76 2.71354 155C2.40104 154.245 2.16667 153.464 2.00521 152.661C1.84375 151.859 1.76562 151.047 1.76562 150.224C1.76562 149.406 1.84375 148.594 2.00521 147.792C2.16667 146.984 2.40104 146.208 2.71354 145.448C3.02604 144.693 3.41146 143.974 3.86979 143.292C4.32292 142.609 4.83854 141.979 5.41667 141.401L126.76 20.0573C127.339 19.4792 127.969 18.9635 128.651 18.5052C129.333 18.0521 130.052 17.6667 130.807 17.3542C131.568 17.0417 132.349 16.8073 133.151 16.6458C133.953 16.4844 134.766 16.4062 135.583 16.4062C136.406 16.4062 137.219 16.4844 138.021 16.6458C138.823 16.8073 139.604 17.0417 140.365 17.3542C141.12 17.6667 141.839 18.0521 142.521 18.5052C143.203 18.9635 143.833 19.4792 144.411 20.0573L265.75 141.401C266.333 141.979 266.849 142.609 267.302 143.292C267.76 143.974 268.141 144.693 268.458 145.448C268.771 146.208 269.005 146.984 269.167 147.792C269.328 148.594 269.406 149.406 269.406 150.224C269.406 151.047 269.328 151.859 269.167 152.661C269.005 153.464 268.771 154.245 268.458 155C268.141 155.76 267.76 156.479 267.302 157.161C266.849 157.844 266.333 158.474 265.75 159.052Z" fill="#9D9581"/>
</g>
<mask id="mask1_280_263" style="mask-type:luminance" maskUnits="userSpaceOnUse" x="1" y="0" width="270" height="270">
<path d="M1.33301 0H270.531V269.333H1.33301V0Z" fill="white"/>
</mask>
<g mask="url(#mask1_280_263)">
<path d="M265.75 143.916L144.411 265.255C143.833 265.833 143.203 266.354 142.521 266.807C141.839 267.26 141.12 267.646 140.365 267.958C139.604 268.271 138.823 268.51 138.021 268.666C137.219 268.828 136.406 268.911 135.583 268.911C134.766 268.911 133.953 268.828 133.151 268.666C132.349 268.51 131.568 268.271 130.807 267.958C130.052 267.646 129.333 267.26 128.651 266.807C127.969 266.354 127.339 265.833 126.76 265.255L5.41667 143.916C4.83854 143.333 4.32292 142.703 3.86979 142.021C3.41146 141.343 3.02604 140.619 2.71354 139.864C2.40104 139.109 2.16667 138.328 2.00521 137.526C1.84375 136.718 1.76562 135.906 1.76562 135.088C1.76562 134.271 1.84375 133.458 2.00521 132.651C2.16667 131.849 2.40104 131.067 2.71354 130.312C3.02604 129.557 3.41146 128.833 3.86979 128.156C4.32292 127.474 4.83854 126.843 5.41667 126.26L126.76 4.92155C127.339 4.34342 127.969 3.8278 128.651 3.36947C129.333 2.91634 130.052 2.53093 130.807 2.21842C131.568 1.90593 132.349 1.66634 133.151 1.51009C133.953 1.34863 134.766 1.27051 135.583 1.27051C136.406 1.27051 137.219 1.34863 138.021 1.51009C138.823 1.66634 139.604 1.90593 140.365 2.21842C141.12 2.53093 141.839 2.91634 142.521 3.36947C143.203 3.8278 143.833 4.34342 144.411 4.92155L265.75 126.26C266.333 126.843 266.849 127.474 267.302 128.156C267.76 128.833 268.141 129.557 268.458 130.312C268.771 131.067 269.005 131.849 269.167 132.651C269.328 133.458 269.406 134.271 269.406 135.088C269.406 135.906 269.328 136.718 269.167 137.526C269.005 138.328 268.771 139.109 268.458 139.864C268.141 140.619 267.76 141.343 267.302 142.021C266.849 142.703 266.333 143.333 265.75 143.916Z" fill="#E1DBCC"/>
</g>
<mask id="mask2_280_263" style="mask-type:luminance" maskUnits="userSpaceOnUse" x="85" y="94" width="101" height="116">
<path d="M85.333 94.1406H185.333V209.74H85.333V94.1406Z" fill="white"/>
</mask>
<g mask="url(#mask2_280_263)">
<path d="M183.911 109.026C183.854 109.026 183.796 109.021 183.739 109.016C182.734 108.812 171.572 106.578 160.031 103.5C146.864 99.2396 135.27 94.1406 135.27 94.1406C135.27 94.1406 124.182 99.0938 111.39 103.318C99.739 106.495 88.3014 108.812 87.2858 109.016C87.2337 109.021 87.1764 109.026 87.1192 109.026C87.1192 109.026 73.7442 178.964 135.468 209.677L135.515 209.578L135.562 209.677C197.286 178.964 183.911 109.026 183.911 109.026Z" fill="#C22929"/>
</g>
<path d="M178.473 113.844C178.426 113.839 178.374 113.833 178.327 113.828C177.432 113.651 167.525 111.667 157.281 108.932C145.593 105.151 135.296 100.625 135.296 100.625C135.296 100.625 125.452 105.026 114.098 108.771C103.754 111.594 93.6034 113.651 92.7024 113.828C92.6555 113.833 92.6034 113.839 92.5566 113.844C92.5566 113.844 80.6763 175.927 135.473 203.188L135.515 203.104L135.557 203.188C190.353 175.927 178.473 113.844 178.473 113.844Z" fill="white"/>
<path d="M175.661 116.339C175.614 116.333 175.567 116.328 175.521 116.323C174.682 116.156 165.427 114.307 155.854 111.75C144.932 108.219 135.312 103.984 135.312 103.984C135.312 103.984 126.114 108.099 115.5 111.599C105.838 114.234 96.3487 116.156 95.5102 116.323C95.4633 116.328 95.4165 116.333 95.3696 116.339C95.3696 116.339 84.2706 174.354 135.474 199.828L135.515 199.745L135.552 199.828C186.76 174.354 175.661 116.339 175.661 116.339Z" fill="#FF4C4C"/>
<path d="M175.52 116.323C174.682 116.156 165.426 114.307 155.854 111.75C144.932 108.219 135.312 103.984 135.312 103.984C135.312 103.984 126.114 108.099 115.499 111.599C105.838 114.234 96.3483 116.156 95.5098 116.323C95.4629 116.328 95.416 116.333 95.3691 116.339L135.447 146.823L175.52 116.323Z" fill="#C22929"/>
<path d="M95.3696 116.339C95.3696 116.339 84.2706 174.354 135.474 199.828L135.448 146.823L95.3696 116.339Z" fill="#FF3131"/>
</g>
</svg>
