<svg width="547" height="548" viewBox="0 0 547 548" fill="none" xmlns="http://www.w3.org/2000/svg">
<g opacity="0.36">
<path d="M403.542 290.239L281.896 411.885C281.313 412.468 280.683 412.984 279.995 413.442C279.313 413.895 278.594 414.281 277.834 414.598C277.073 414.911 276.292 415.15 275.485 415.307C274.683 415.468 273.865 415.546 273.047 415.546C272.224 415.546 271.412 415.468 270.604 415.307C269.797 415.15 269.016 414.911 268.256 414.598C267.495 414.281 266.776 413.895 266.094 413.442C265.412 412.984 264.776 412.468 264.198 411.885L142.547 290.239C141.969 289.656 141.448 289.025 140.995 288.343C140.537 287.656 140.151 286.937 139.839 286.176C139.521 285.416 139.287 284.635 139.125 283.827C138.964 283.025 138.886 282.213 138.886 281.39C138.886 280.567 138.964 279.755 139.125 278.947C139.287 278.14 139.521 277.359 139.839 276.598C140.151 275.843 140.537 275.119 140.995 274.437C141.448 273.755 141.969 273.119 142.547 272.541L264.198 150.89C264.776 150.312 265.412 149.791 266.094 149.338C266.776 148.88 267.495 148.494 268.256 148.182C269.016 147.864 269.797 147.63 270.604 147.468C271.412 147.307 272.224 147.229 273.047 147.229C273.865 147.229 274.683 147.307 275.485 147.468C276.292 147.63 277.073 147.864 277.834 148.182C278.594 148.494 279.313 148.88 279.995 149.338C280.683 149.791 281.313 150.312 281.896 150.89L403.542 272.541C404.125 273.119 404.641 273.755 405.099 274.437C405.552 275.119 405.938 275.843 406.256 276.598C406.568 277.359 406.802 278.14 406.964 278.947C407.125 279.755 407.203 280.567 407.203 281.39C407.203 282.213 407.125 283.025 406.964 283.827C406.802 284.635 406.568 285.416 406.256 286.176C405.938 286.937 405.552 287.656 405.099 288.343C404.641 289.025 404.125 289.656 403.542 290.239Z" fill="#9D9581"/>
<path d="M403.542 275.078L281.896 396.724C281.313 397.307 280.683 397.823 279.995 398.281C279.313 398.734 278.594 399.119 277.834 399.437C277.073 399.75 276.292 399.984 275.485 400.146C274.683 400.307 273.865 400.385 273.047 400.385C272.224 400.385 271.412 400.307 270.604 400.146C269.797 399.984 269.016 399.75 268.256 399.437C267.495 399.119 266.776 398.734 266.094 398.281C265.412 397.823 264.776 397.307 264.198 396.724L142.547 275.078C141.969 274.494 141.448 273.864 140.995 273.182C140.537 272.494 140.151 271.776 139.839 271.015C139.521 270.255 139.287 269.474 139.125 268.666C138.964 267.864 138.886 267.047 138.886 266.229C138.886 265.406 138.964 264.593 139.125 263.786C139.287 262.979 139.521 262.198 139.839 261.437C140.151 260.677 140.537 259.958 140.995 259.276C141.448 258.593 141.969 257.958 142.547 257.38L264.198 135.729C264.776 135.151 265.412 134.63 266.094 134.177C266.776 133.718 267.495 133.333 268.256 133.021C269.016 132.703 269.797 132.468 270.604 132.307C271.412 132.146 272.224 132.067 273.047 132.067C273.865 132.067 274.683 132.146 275.485 132.307C276.292 132.468 277.073 132.703 277.834 133.021C278.594 133.333 279.313 133.718 279.995 134.177C280.683 134.63 281.313 135.151 281.896 135.729L403.542 257.38C404.125 257.958 404.641 258.593 405.099 259.276C405.552 259.958 405.938 260.677 406.256 261.437C406.568 262.198 406.802 262.979 406.964 263.786C407.125 264.593 407.203 265.406 407.203 266.229C407.203 267.047 407.125 267.864 406.964 268.666C406.802 269.474 406.568 270.255 406.256 271.015C405.938 271.776 405.552 272.494 405.099 273.182C404.641 273.864 404.125 274.494 403.542 275.078Z" fill="#E1DBCC"/>
<mask id="mask0_280_285" style="mask-type:luminance" maskUnits="userSpaceOnUse" x="224" y="217" width="98" height="98">
<path d="M224.183 217.385H321.745V314.952H224.183V217.385Z" fill="white"/>
</mask>
<g mask="url(#mask0_280_285)">
<mask id="mask1_280_285" style="mask-type:luminance" maskUnits="userSpaceOnUse" x="224" y="217" width="98" height="98">
<path d="M272.964 217.385C246.021 217.385 224.183 239.223 224.183 266.166C224.183 293.109 246.021 314.952 272.964 314.952C299.907 314.952 321.745 293.109 321.745 266.166C321.745 239.223 299.907 217.385 272.964 217.385Z" fill="white"/>
</mask>
<g mask="url(#mask1_280_285)">
<path d="M224.183 217.385H321.745V314.952H224.183V217.385Z" fill="#3A791F"/>
</g>
</g>
<mask id="mask2_280_285" style="mask-type:luminance" maskUnits="userSpaceOnUse" x="230" y="223" width="85" height="85">
<path d="M230.917 223.88H314.912V307.869H230.917V223.88Z" fill="white"/>
</mask>
<g mask="url(#mask2_280_285)">
<mask id="mask3_280_285" style="mask-type:luminance" maskUnits="userSpaceOnUse" x="230" y="223" width="85" height="85">
<path d="M272.912 223.88C249.719 223.88 230.917 242.682 230.917 265.875C230.917 289.067 249.719 307.869 272.912 307.869C296.11 307.869 314.912 289.067 314.912 265.875C314.912 242.682 296.11 223.88 272.912 223.88Z" fill="white"/>
</mask>
<g mask="url(#mask3_280_285)">
<path d="M230.917 223.88H314.912V307.869H230.917V223.88Z" fill="white"/>
</g>
</g>
<mask id="mask4_280_285" style="mask-type:luminance" maskUnits="userSpaceOnUse" x="270" y="289" width="5" height="19">
<path d="M270.886 289.525H274.938V307.874H270.886V289.525Z" fill="white"/>
</mask>
<g mask="url(#mask4_280_285)">
<mask id="mask5_280_285" style="mask-type:luminance" maskUnits="userSpaceOnUse" x="270" y="289" width="5" height="19">
<path d="M272.912 289.525L274.938 307.874H270.886L272.912 289.525Z" fill="white"/>
</mask>
<g mask="url(#mask5_280_285)">
<path d="M270.886 289.525H274.938V307.874H270.886V289.525Z" fill="#296211"/>
</g>
</g>
<mask id="mask6_280_285" style="mask-type:luminance" maskUnits="userSpaceOnUse" x="262" y="242" width="29" height="33">
<path d="M262.667 242.666H290.667V274.666H262.667V242.666Z" fill="white"/>
</mask>
<g mask="url(#mask6_280_285)">
<mask id="mask7_280_285" style="mask-type:luminance" maskUnits="userSpaceOnUse" x="263" y="236" width="37" height="38">
<path d="M280.411 236.187L299.797 250.864L282.599 273.577L263.219 258.9L280.411 236.187Z" fill="white"/>
</mask>
<g mask="url(#mask7_280_285)">
<mask id="mask8_280_285" style="mask-type:luminance" maskUnits="userSpaceOnUse" x="263" y="243" width="28" height="31">
<path d="M290.104 243.525L282.651 273.505L263.271 258.833L290.104 243.525Z" fill="white"/>
</mask>
<g mask="url(#mask8_280_285)">
<path d="M280.411 236.187L299.796 250.864L282.656 273.499L263.275 258.827L280.411 236.187Z" fill="#FF3131"/>
</g>
</g>
</g>
<mask id="mask9_280_285" style="mask-type:luminance" maskUnits="userSpaceOnUse" x="254" y="258" width="29" height="32">
<path d="M254.667 258.666H282.667V289.333H254.667V258.666Z" fill="white"/>
</mask>
<g mask="url(#mask9_280_285)">
<mask id="mask10_280_285" style="mask-type:luminance" maskUnits="userSpaceOnUse" x="246" y="258" width="37" height="39">
<path d="M265.511 296.145L246.131 281.473L263.324 258.76L282.709 273.432L265.511 296.145Z" fill="white"/>
</mask>
<g mask="url(#mask10_280_285)">
<mask id="mask11_280_285" style="mask-type:luminance" maskUnits="userSpaceOnUse" x="255" y="258" width="28" height="31">
<path d="M255.818 288.812L263.271 258.827L282.657 273.504L255.818 288.812Z" fill="white"/>
</mask>
<g mask="url(#mask11_280_285)">
<path d="M265.511 296.145L246.131 281.473L263.266 258.832L282.652 273.509L265.511 296.145Z" fill="#FF3131"/>
</g>
</g>
</g>
<mask id="mask12_280_285" style="mask-type:luminance" maskUnits="userSpaceOnUse" x="266" y="260" width="14" height="14">
<path d="M266.667 260H280V273.333H266.667V260Z" fill="white"/>
</mask>
<g mask="url(#mask12_280_285)">
<mask id="mask13_280_285" style="mask-type:luminance" maskUnits="userSpaceOnUse" x="264" y="257" width="18" height="18">
<path d="M271.786 257.823L281.339 265.058L274.161 274.532L264.609 267.302L271.786 257.823Z" fill="white"/>
</mask>
<g mask="url(#mask13_280_285)">
<mask id="mask14_280_285" style="mask-type:luminance" maskUnits="userSpaceOnUse" x="266" y="260" width="13" height="13">
<path d="M276.547 261.433C273.916 259.438 270.177 259.948 268.198 262.563C266.219 265.183 266.745 268.917 269.375 270.907C272.005 272.901 275.745 272.391 277.724 269.776C279.703 267.157 279.177 263.422 276.547 261.433Z" fill="white"/>
</mask>
<g mask="url(#mask14_280_285)">
<path d="M271.786 257.823L281.302 265.026L274.125 274.506L264.609 267.302L271.786 257.823Z" fill="white"/>
</g>
</g>
</g>
<mask id="mask15_280_285" style="mask-type:luminance" maskUnits="userSpaceOnUse" x="230" y="265" width="21" height="6">
<path d="M230.667 265.333H250.667V270.666H230.667V265.333Z" fill="white"/>
</mask>
<g mask="url(#mask15_280_285)">
<mask id="mask16_280_285" style="mask-type:luminance" maskUnits="userSpaceOnUse" x="230" y="264" width="20" height="6">
<path d="M249.381 264.854L249.501 268.906L230.969 269.458L230.85 265.4L249.381 264.854Z" fill="white"/>
</mask>
<g mask="url(#mask16_280_285)">
<mask id="mask17_280_285" style="mask-type:luminance" maskUnits="userSpaceOnUse" x="230" y="265" width="20" height="5">
<path d="M249.438 266.88L230.98 269.452L230.86 265.4L249.438 266.88Z" fill="white"/>
</mask>
<g mask="url(#mask17_280_285)">
<path d="M249.381 264.854L249.501 268.906L230.985 269.452L230.865 265.4L249.381 264.854Z" fill="#296211"/>
</g>
</g>
</g>
<mask id="mask18_280_285" style="mask-type:luminance" maskUnits="userSpaceOnUse" x="296" y="265" width="19" height="5">
<path d="M296.417 265.125H314.922V269.182H296.417V265.125Z" fill="white"/>
</mask>
<g mask="url(#mask18_280_285)">
<mask id="mask19_280_285" style="mask-type:luminance" maskUnits="userSpaceOnUse" x="296" y="265" width="19" height="5">
<path d="M296.417 267.156L314.912 265.125V269.182L296.417 267.156Z" fill="white"/>
</mask>
<g mask="url(#mask19_280_285)">
<path d="M296.417 269.182V265.125H314.907V269.182H296.417Z" fill="#296211"/>
</g>
</g>
<mask id="mask20_280_285" style="mask-type:luminance" maskUnits="userSpaceOnUse" x="270" y="223" width="5" height="20">
<path d="M270.933 223.875H274.99V242.812H270.933V223.875Z" fill="white"/>
</mask>
<g mask="url(#mask20_280_285)">
<mask id="mask21_280_285" style="mask-type:luminance" maskUnits="userSpaceOnUse" x="270" y="223" width="5" height="20">
<path d="M272.959 242.812L270.933 223.88H274.99L272.959 242.812Z" fill="white"/>
</mask>
<g mask="url(#mask21_280_285)">
<path d="M274.99 242.812H270.933V223.875H274.99V242.812Z" fill="#296211"/>
</g>
</g>
</g>
</svg>
